<svg xmlns="http://www.w3.org/2000/svg" viewBox="0 0 1500 500">
	<defs>
		<style>
			svg {
				--code-stagger: 0.6s;
				--code-delay: 0.4s;
				--logos-duration: 12s;
				--logos-delay: 0.3s;
				--flicker-scale: 0.8;
			}
			.background {
				fill: #2a2b24;
			}
			.red-circle {
				fill: #ff5b52;
			}
			.yellow-circle {
				fill: #e6c028;
			}
			.green-circle {
				fill: #52c22c;
			}
			.pink {
				fill: #f42670;
			}
			.blue,
			.pink,
			.orange,
			.white,
			.green,
			.purple {
				opacity: 0.75;
			}
			.orange {
				fill: #fd9620;
			}
			.white {
				fill: #f8f8f1;
			}
			.green {
				fill: #a6e22e;
			}
			.purple {
				fill: #584872;
			}
			.blue {
				fill: #9effff;
			}
			.logos {
				opacity: 0.25;
			}
			.scribble {
				fill: none;
				stroke: #afafaf;
				stroke-linecap: round;
				stroke-linejoin: round;
				stroke-width: 3px;
			}
			.clip-path {
				fill: none;
			}
			.browser-white {
				fill: #f8f8f1;
			}
			.clip-fill {
				clip-path: url(#clip-path);
			}
			.browser-navigation {
				fill: #515151;
			}
			#react,
			#javascript,
			#svelte.logos {
				opacity: 0;
				transform-origin: 75% 50%;
			}
			#javascript {
				animation: flicker-1 var(--logos-duration) ease-out infinite;
				animation-delay: calc(
					calc(var(--code-stagger) * 5) + var(--code-delay) + var(--logos-delay)
				);
			}
			#svelte.logos {
				animation: flicker-2 var(--logos-duration) ease-out infinite;
				animation-delay: calc(
					calc(var(--code-stagger) * 5) + var(--code-delay) + var(--logos-delay)
				);
			}
			#react {
				animation: flicker-3 var(--logos-duration) ease-out infinite;
				animation-delay: calc(
					calc(var(--code-stagger) * 5) + var(--code-delay) + var(--logos-delay)
				);
			}
			#code g {
				opacity: 0;
				animation: code-in 1s ease-out forwards;
			}
			#code g#block-1 {
				animation-delay: calc(var(--code-stagger) * 0 + var(--code-delay));
			}
			#code g#block-2 {
				animation-delay: calc(var(--code-stagger) * 1 + var(--code-delay));
			}
			#code g#block-3 {
				animation-delay: calc(var(--code-stagger) * 2 + var(--code-delay));
			}
			#code g#block-4 {
				animation-delay: calc(var(--code-stagger) * 3 + var(--code-delay));
			}
			#code g#block-5 {
				animation-delay: calc(var(--code-stagger) * 4 + var(--code-delay));
			}
			@keyframes appear {
				0% {
					opacity: 0;
					transform: scale(var(--flicker-scale));
				}
				30% {
					opacity: 1;
					transform: scale(1);
				}
				70% {
					opacity: 1;
					transform: scale(1);
				}
				100% {
					opacity: 0;
					transform: scale(var(--flicker-scale));
				}
			}
			@keyframes flicker-1 {
				0% {
					opacity: 0;
					transform: scale(var(--flicker-scale));
				}
				6% {
					opacity: 1;
					transform: scale(1);
				}
				24% {
					opacity: 1;
					transform: scale(1);
				}
				30% {
					opacity: 0;
					transform: scale(var(--flicker-scale));
				}
				100% {
					opacity: 0;
					transform: scale(var(--flicker-scale));
				}
			}
			@keyframes flicker-2 {
				0% {
					opacity: 0;
					transform: scale(var(--flicker-scale));
				}
				35% {
					opacity: 0;
					transform: scale(var(--flicker-scale));
				}
				41% {
					opacity: 1;
					transform: scale(1);
				}
				59% {
					opacity: 1;
					transform: scale(1);
				}
				65% {
					opacity: 0;
					transform: scale(var(--flicker-scale));
				}
				100% {
					opacity: 0;
					transform: scale(var(--flicker-scale));
				}
			}
			@keyframes flicker-3 {
				0% {
					opacity: 0;
					transform: scale(var(--flicker-scale));
				}
				70% {
					opacity: 0;
					transform: scale(var(--flicker-scale));
				}
				76% {
					opacity: 1;
					transform: scale(1);
				}
				94% {
					opacity: 1;
					transform: scale(1);
				}
				100% {
					opacity: 0;
					transform: scale(var(--flicker-scale));
				}
			}
			@keyframes code-in {
				from {
					opacity: 0;
					transform: translateX(50px);
				}
				to {
					opacity: 1;
					transform: translateX(0);
				}
			}
		</style>
		<clipPath id="clip-path">
			<rect
				id="clip-mask"
				class="clip-path"
				x="847.13"
				y="29.67"
				width="561.01"
				height="440.66"
				rx="19"
			/>
		</clipPath>
	</defs>
	<title>github-header</title>
	<rect id="background" class="background" width="1500" height="500" rx="12" />
	<g id="window-controls">
		<circle id="red" class="red-circle" cx="25" cy="24.24" r="6" />
		<circle id="yellow" class="yellow-circle" cx="44.79" cy="24.24" r="6" />
		<circle id="green" class="green-circle" cx="64.57" cy="24.24" r="6" />
	</g>
	<g id="code">
		<g id="block-1">
			<rect class="pink" x="107.13" y="24.24" width="68.22" height="19.2" rx="9.6" />
			<rect class="orange" x="183.5" y="24.24" width="68.22" height="19.2" rx="9.6" />
			<rect class="orange" x="258.07" y="24.24" width="59.73" height="19.2" rx="9.6" />
			<rect class="orange" x="348.59" y="24.24" width="114.54" height="19.2" rx="9.6" />
			<rect class="pink" x="135.77" y="50.4" width="25.5" height="19.2" rx="9.6" />
			<rect class="blue" x="172.76" y="50.4" width="110.69" height="19.2" rx="9.6" />
			<rect class="pink" x="297.65" y="50.4" width="53.44" height="19.2" rx="9.6" />
		</g>
		<g id="block-2">
			<rect class="pink" x="136.08" y="94.27" width="30.47" height="19.2" rx="9.6" />
			<rect class="orange" x="171.39" y="94.27" width="104.75" height="19.2" rx="9.6" />
			<rect class="white" x="297.7" y="94.27" width="53.44" height="19.2" rx="9.6" />
			<rect class="green" x="397.13" y="94.27" width="63.66" height="19.2" rx="9.6" />
			<rect class="purple" x="357.23" y="94.27" width="19.2" height="19.2" rx="9.6" />
			<rect class="purple" x="471.14" y="94.27" width="19.2" height="19.2" rx="9.6" />
			<rect class="pink" x="136.02" y="120.59" width="30.47" height="19.2" rx="9.6" />
			<rect class="blue" x="287.96" y="120.59" width="104.69" height="19.2" rx="9.6" />
			<rect class="green" x="397.13" y="120.59" width="80.8" height="19.2" rx="9.6" />
			<rect class="blue" x="490.34" y="120.59" width="45.61" height="19.2" rx="9.6" />
			<rect class="orange" x="171.39" y="120.59" width="97.77" height="19.2" rx="9.6" />
			<rect class="white" x="175.32" y="146.92" width="178.37" height="19.2" rx="9.6" />
			<rect class="green" x="259.72" y="172.8" width="112.5" height="19.2" rx="9.6" />
			<rect class="green" x="378.3" y="172.8" width="43.82" height="19.2" rx="9.6" />
			<rect class="green" x="428.13" y="172.8" width="80.08" height="19.2" rx="9.6" />
			<rect class="blue" x="552.93" y="172.8" width="46.44" height="19.2" rx="9.6" />
			<rect class="white" x="605.73" y="172.8" width="19.2" height="19.2" rx="9.6" />
			<rect class="blue" x="192.47" y="172.8" width="61.03" height="19.2" rx="9.6" />
		</g>
		<g id="block-3">
			<rect class="pink" x="135.96" y="261.94" width="30.47" height="19.2" rx="9.6" />
			<rect class="pink" x="260.91" y="261.94" width="30.47" height="19.2" rx="9.6" />
			<rect class="pink" x="425.48" y="261.94" width="69.11" height="19.2" rx="9.6" />
			<rect class="orange" x="171.39" y="261.94" width="72.04" height="19.2" rx="9.6" />
			<rect class="orange" x="498.92" y="261.94" width="108.02" height="19.2" rx="9.6" />
			<rect class="orange" x="615.15" y="261.94" width="47.91" height="19.2" rx="9.6" />
			<rect class="white" x="296.6" y="261.94" width="124.07" height="19.2" rx="9.6" />
			<rect class="blue" x="318.2" y="288.51" width="46.23" height="19.2" rx="9.6" />
			<rect class="green" x="287.61" y="288.51" width="24.85" height="19.2" rx="9.6" />
			<rect class="green" x="372.05" y="288.51" width="92.89" height="19.2" rx="9.6" />
			<rect class="green" x="470.46" y="288.51" width="52.54" height="19.2" rx="9.6" />
			<rect class="blue" x="173.95" y="288.51" width="108.03" height="19.2" rx="9.6" />
		</g>
		<g id="block-4">
			<rect class="blue" x="136.15" y="353.66" width="71.26" height="19.2" rx="9.6" />
			<rect class="green" x="212.24" y="353.66" width="63.91" height="19.2" rx="9.6" />
			<rect class="blue" x="283.5" y="353.66" width="56.8" height="19.2" rx="9.6" />
		</g>
		<g id="block-5">
			<rect class="pink" x="135.89" y="398.91" width="59.67" height="19.2" rx="9.6" />
			<rect class="blue" x="173.95" y="424.29" width="97.24" height="19.2" rx="9.6" />
			<rect class="blue" x="176.19" y="449.66" width="75.28" height="19.2" rx="9.6" />
			<rect class="green" x="257.89" y="449.66" width="74.68" height="19.2" rx="9.6" />
			<rect class="blue" x="336.95" y="449.66" width="62.79" height="19.2" rx="9.6" />
		</g>
	</g>
	<rect id="divider" class="white" x="748" y="18.24" width="4" height="463.52" rx="2" />
	<g id="browser">
		<rect
			id="page"
			class="browser-white"
			x="847.13"
			y="29.67"
			width="561.01"
			height="440.66"
			rx="19"
		/>
		<g class="clip-fill">
			<rect
				id="header"
				class="browser-navigation"
				width="591.77"
				height="45.94"
				x="839.31"
				y="29.67"
			/>
		</g>
		<g id="controls">
			<g id="prev">
				<path
					class="browser-white"
					d="M881.27,51.12a1.06,1.06,0,0,1-1.06,1h0L861,51.73l11.9,8a1.07,1.07,0,0,1-.62,2,1,1,0,0,1-.56-.18l-14.94-10a1.09,1.09,0,0,1-.48-.91,1.06,1.06,0,0,1,.52-.89l15.37-9.31a1.07,1.07,0,0,1,1.47.36,1.06,1.06,0,0,1-.37,1.46L861,49.6l19.21.43A1.06,1.06,0,0,1,881.27,51.12Z"
				/>
			</g>
			<g id="refresh">
				<path
					class="browser-white"
					d="M942.68,65.43A12.63,12.63,0,0,1,930.32,55.3a1.05,1.05,0,0,1,.82-1.25,1.07,1.07,0,0,1,1.25.83,10.5,10.5,0,1,0,8.23-12.35,10.39,10.39,0,0,0-6.56,4.29h2.36a1.06,1.06,0,1,1,0,2.11h-4.94a1.06,1.06,0,0,1-1.06-1V42.94a1.06,1.06,0,0,1,2.12,0v2.38a12.61,12.61,0,1,1,12.61,19.86A12.35,12.35,0,0,1,942.68,65.43Z"
				/>
			</g>
			<g id="next">
				<path
					class="browser-white"
					d="M918.77,50.61a1.05,1.05,0,0,1-.47.9l-15,10a1.07,1.07,0,0,1-1.18-1.78l11.92-7.93-19.21.38h0a1.07,1.07,0,0,1,0-2.13L914,49.63l-12.22-7.45a1.05,1.05,0,0,1-.36-1.46,1.07,1.07,0,0,1,.89-.52,1.1,1.1,0,0,1,.58.16l15.34,9.36A1,1,0,0,1,918.77,50.61Z"
				/>
			</g>
			<rect
				id="search-bar"
				class="browser-white"
				x="972.7"
				y="40.86"
				width="426.18"
				height="23.91"
				rx="10.5"
			/>
		</g>
	</g>
	<g id="svelte" class="logos svelte">
		<g>
			<polyline
				class="scribble"
				points="1149.65 151.18 1171.38 138.64 1153.69 151.98 1175.91 139.15 1164.28 148.53 1181.28 138.72 1162.39 152.06 1179.62 142.12 1169.65 150.4 1183.89 142.18 1173.73 152.33 1193.55 140.88 1178.35 152.91 1189.79 146.3 1185.44 153.23 1194.62 147.93 1189.19 155.16 1202.68 147.37 1187.02 159.75 1200.02 152.24 1193.86 158.46 1202.2 153.64 1194.99 161.78 1207.84 154.36 1201.93 162.31 1213.18 155.81 1203.36 165.38 1213.2 159.7 1201.39 169.94 1212.78 163.37 1205.84 169.84 1213.93 165.17 1202.52 175.73 1219.96 165.67 1206.64 176.55 1219.07 169.37 1212.02 178.01 1218.84 174.07 1208.78 183.16 1221.25 175.96 1214.59 183.01 1226.2 176.31 1212.08 187.36 1223.03 181.04 1210.41 191.34 1224.95 182.95 1212.57 192.42 1226.21 184.55 1211.09 195.9 1226.44 187.04 1210.43 200.53 1223.18 193.17 1211.18 204.68 1226.66 195.74 1210.77 209.34 1230.3 198.06"
			/>
			<polyline
				class="scribble"
				points="1161.52 188.76 1180.44 177.83 1166.95 188.26 1180.11 180.66 1169.92 189.05 1181.2 182.54 1170.22 193.17 1187.22 183.36 1175.54 193.34 1188.06 186.11 1173.65 197.53 1189.41 188.43 1174.61 199.85 1186.13 193.2 1176.72 202.52 1186.09 197.11 1178.84 204.9 1188.6 199.26 1177.36 210.28 1196.94 198.97 1180.66 211.13 1195.67 202.46 1189.39 210.17 1203.12 202.24 1193.83 211.22 1205.28 204.61 1195.68 212.48 1207.21 205.82 1196.65 215.36 1210.74 207.22 1201.38 216.35 1224.91 202.76 1199.29 220.53 1224.61 205.91 1204.11 220.16 1226.55 207.21 1207.74 220.87 1225.39 210.68 1210.92 222.31 1221.97 215.94 1213.71 224.49 1226.52 217.09 1215.04 226.96 1220.04 224.07"
			/>
			<polyline
				class="scribble"
				points="1139.12 186.36 1156.71 176.2 1078.36 225.89 1167.57 174.39 1070.22 232.93 1167.59 176.72 1068.27 237.9 1176.71 175.29 1071.52 239.97 1156.27 191.04 1067.9 246.29 1089.62 233.75 1069.27 248.01 1083.57 239.75 1071.8 249.9 1080.83 244.68 1074.42 251.49 1084.04 245.94 1070.91 256.91 1084.1 249.3 1075.15 257.34 1084.61 251.87 1074.36 261.97 1092.67 251.4 1080.98 260.84 1092.27 254.32 1083.5 262.46 1147.05 225.76 1086.35 264.26 1158.2 222.78 1089.04 265.37 1157.58 225.8 1091.82 268.05 1166.83 224.74"
			/>
			<polyline
				class="scribble"
				points="1141.63 241.34 1172.03 223.78 1152.85 238.82 1176.11 225.39 1165.18 236.19 1182.33 226.29 1166.29 238.93 1184.99 228.14 1173.55 237.09 1182.46 231.95 1172.26 240.88 1189.1 231.16 1178.03 242 1194.89 232.26 1182.09 242.47 1193.23 236.04 1186.89 242.31 1193.43 238.54 1185.89 247.47 1197.34 240.86 1186.66 250.01 1200.79 241.85 1192.48 250.92 1208.31 241.78 1196.85 252.49 1209.29 245.31 1199.55 254.73 1208.4 249.62 1202.59 256.45 1209.61 252.39 1202.29 260.54 1210.29 255.92 1200.32 264.95 1217.2 255.21 1204.38 265.78 1215.8 259.19 1202.83 270.57 1219.7 260.83 1207.5 271.16 1217.34 265.48 1204.8 275.35 1221.44 265.74 1210.83 274.32 1223.27 267.13 1209.79 278.58 1223.39 270.73 1211.21 282.06 1225.34 273.9 1208.03 287.51 1221.56 279.71 1209.78 290.53 1223.93 282.36 1210.45 293 1225.28 284.44 1207.68 298.8 1221.98 290.55 1210.29 300.24 1219.84 294.73 1206.09 305.15 1219.89 297.18 1199.52 313.52 1218.97 302.29 1196.98 317.58 1217.53 305.71 1158.31 344.22 1220.14 308.52"
			/>
			<polyline
				class="scribble"
				points="1033.42 304.07 1035.98 302.59 1030.61 309.17 1043.49 301.73 1028.71 314.59 1045.5 304.9 1027.4 318.28 1048.2 306.27 1024.54 322.99 1050.58 307.95 1025.07 326.85 1052.79 310.84 1026.35 330.19 1038.42 323.23 1027.58 334.08 1039.21 327.36 1024.41 340.33 1039.59 331.56 1027.17 342.2 1042.34 333.44 1028.6 344.46 1039.75 338.02 1031.74 347.03 1039.07 342.8 1031.25 350.48 1041.65 344.47 1033.6 353.66 1042.06 348.77 1030.83 358.74 1045.61 350.21 1034.83 359.3 1049.77 350.67 1034.13 364.29 1046.21 357.31 1038.03 364.43 1049.23 357.96 1042.22 366.45 1055.53 358.76 1045.76 367.69 1057.18 361.1 1046.21 370.64 1057.62 364.05 1047.74 373.6 1060.98 365.95 1046.6 378.13 1060.19 370.29 1048.99 379.39 1065.86 369.65 1051.54 380.34 1069.13 370.19 1053.93 381.37 1068.39 373.02 1056.35 384.56 1071.14 376.03 1063.54 383.73 1073.92 377.74 1065.6 386.2 1084.35 375.37 1068.81 387.56 1083.16 379.27 1074.57 387.59 1090.06 378.64 1077.1 389.48 1097.08 377.94 1082.22 389.98 1109.11 374.45 1089.3 390.45 1213.38 318.82 1093.56 390.98 1211.45 322.92 1098.8 391.27 1202.29 331.53 1104.67 390.7 1165.87 355.36"
			/>
			<polyline
				class="scribble"
				points="1040.09 320.67 1057.67 310.51 1047.63 319.29 1061.02 311.57 1045.68 324.59 1060.89 315.81 1050.33 324.38 1065.02 315.89 1051.71 327.34 1066.73 318.67 1054.5 328.72 1070.54 319.45 1059.61 329.48 1074.74 320.75 1064.61 330.66 1076.8 323.62 1062.86 335.6 1080.66 325.32 1065.51 336.4 1078.13 329.12 1069.62 337.23 1077.91 332.45 1065.62 344.02 1078.3 336.69 1070.41 345.81 1086.07 336.76 1073.36 347.07 1082.86 341.58 1073.5 350.49 1092.87 339.31 1077.96 352.03 1186.39 289.43 1079.58 354.68 1181.87 295.63 1087.49 354.04 1174.09 304.04 1092.2 354 1131.46 331.33"
			/>
			<polyline
				class="scribble"
				points="1160.62 274.64 1173.81 267.03 1161.9 276.4 1173.5 269.7 1169.17 276.2 1176.27 272.1 1170.4 279.82 1181.29 273.54 1169.88 284.59 1185.5 275.57 1168.6 289.44 1181.91 281.76 1154.42 300.99 1185.94 282.79 1109.17 329.91 1184.04 286.68"
			/>
			<polyline
				class="scribble"
				points="1116.42 154.97 1141.23 140.65 1051.73 196.14 1152.47 137.98 1040.92 206.06 1161.74 136.3 1041.35 209.23 1165.69 137.44 1037.04 215.3 1134.46 159.06 1031.43 222.59 1071.73 199.32 1032.11 224.82 1053.97 212.2 1031.03 227.9 1051.88 215.86 1030.18 230.84 1052.54 217.93 1032.07 233.33 1046.5 225 1028.52 238.91 1045.63 229.03 1027.35 242.05 1045.75 231.42 1027.61 246 1045.95 235.41 1030.19 247.37 1045.92 238.29 1033.24 249.16 1045.64 242.01 1029.15 254.78 1045.04 245.61 1029.42 257.52 1043.67 249.3 1033.03 259.34 1043.34 253.38 1034.48 262.81 1047.37 255.37 1036.37 265.01 1046.35 259.25 1036.82 267.96 1047.45 261.83 1039.27 269.02 1046.85 264.65 1041.99 269.89 1053.18 263.43 1042.63 272.47 1054.14 265.82 1041.19 277.82 1052.09 271.52 1044.67 278.69 1058.8 270.53 1043.46 284 1054.95 277.36 1047.52 286.06 1059.42 279.19 1048.56 289.64 1065.43 279.9 1055.87 289.22 1066.78 282.92 1059.55 290.19 1069.91 284.21 1057.99 295.19 1071.91 287.16 1061.04 298.04 1081.65 286.13 1069.82 297.13 1083.66 289.14 1068.45 301.42 1088.07 290.09 1072.07 302.61 1092.02 291.09 1078.73 301.48 1099.28 289.62 1081.91 302.26 1102.06 290.63 1090.36 301.33 1159.72 261.28 1092.9 302.58 1161.63 262.9 1094.48 305.12 1169.73 261.67 1101.99 303.52 1173.17 262.42 1111.09 301.89 1176.12 264.35"
			/>
			<polyline
				class="scribble"
				points="1127.67 121.61 1165.48 99.78 1146.21 115.22 1167.53 102.9 1153.37 114.93 1177.68 100.89 1162.44 113.56 1180.08 103.37 1165.43 114.71 1184.07 103.94 1167.38 116.5 1184.89 106.39 1173.3 116.07 1187.83 107.69 1177.2 116.82 1194.49 106.83 1179.88 118.2 1198.21 107.62 1185.13 117.58 1201.92 107.88 1190.35 117.98 1203.29 110.51 1192.68 119 1205.76 111.45 1191.89 122.17 1205.92 114.07 1198.38 122.86 1214.94 113.3 1202.69 123.91 1214.93 116.84 1203.82 127.57 1220.28 118.07 1206.2 130.09 1218.96 122.72 1210.83 129.78 1222.13 123.26 1216.06 130.53 1226.3 124.62 1214.35 134.81 1230.53 125.47 1220.56 133.86 1230.1 128.35 1223.68 135.45 1231.31 131.04 1223.6 140.02 1235.51 133.15 1225.98 143.25 1235.33 137.85 1227.22 145.95 1241.31 137.82 1233.05 147.08 1239.91 143.12 1233.14 149.9 1244.69 143.23 1236.78 150.78 1245.53 145.73 1235.21 155.16 1249.19 147.09 1238.36 156.42 1248 150.85 1236.73 161.67 1249.03 154.57 1242.75 161.54 1254.34 154.85 1241.81 165.24 1256.32 156.86 1243.59 168.47 1258.55 159.84 1242.39 171.96 1252.79 165.96 1246.73 173.33 1256.48 167.69 1244.86 178.3 1256.15 171.78 1245.8 181.82 1256.99 175.35 1246.81 184.36 1257.67 178.1 1246.79 187.45 1261.86 178.75 1247.28 189.82 1261.79 181.44 1250.26 190.94 1265.37 182.22 1251.24 194.69 1265.99 186.17 1247.4 200.69 1260.12 193.34 1250 201.66 1264.05 193.54 1250.39 204.41 1260.19 198.76 1246.65 210.51 1265.67 199.53 1250.81 212.53 1260.63 206.85 1246.75 218.99 1264.85 208.54 1248.45 221.4 1260.67 214.34 1246.55 224.92 1265.46 214 1242.51 230.73 1260.51 220.33 1244.43 232.52 1262.26 222.23 1242.03 236.53 1261.32 225.39 1238.47 241.12 1255.59 231.24 1233.85 246.77 1255.57 234.23 1235.11 250.36 1254.13 239.38 1234.74 253.08 1251.55 243.37 1241.7 252.56 1249.67 247.96 1242.97 256.42 1251.89 251.27 1241.61 261.17 1254.85 253.53 1241.45 264.43 1256.95 255.48 1240.48 269.02 1257.71 259.08 1246.97 269.87 1254.93 265.28 1243.98 274.93 1260.37 265.47 1246.54 277.88 1258.49 270.98 1245.73 282.39 1260.79 273.7 1245.34 285.38 1256.2 279.11 1247.4 288.38 1262.16 279.86 1244.15 292.64 1256.23 285.66 1246.77 294.33 1258.56 287.52 1245.64 298.15 1259.16 290.34 1247.3 300 1262.87 291.01 1246.72 303 1262.67 293.8 1245.47 306.33 1260.19 297.83 1240.2 312.88 1258.79 302.15 1239.95 315.77 1260 304.2 1238.96 318.93 1257.65 308.14 1241.09 320.29 1255.98 311.69 1233.07 329.46 1257.91 315.12 1233.63 331.78 1257.27 318.13 1230.89 336.23 1250.53 324.89 1225.47 342.76 1249.94 328.63 1209.01 355.45 1245.61 334.32 1154.36 390.47 1246.18 337.46"
			/>
			<polyline
				class="scribble"
				points="1097.1 123.82 1122.79 108.99 1033.32 164.46 1137.14 104.52 1017.67 177.18 1148.17 101.83 1015.8 181.67 1153.63 102.09 1009.87 188.68 1158.41 102.92 1002.72 196.86 1055.28 166.51 1002.59 199.55 1031.6 182.81 1000.67 203.12 1027.16 187.82 999.15 206.44 1026.32 190.75 1000.02 209.53 1018.43 198.9 995.52 215.65 1016.07 203.79 993.78 219.12 1015.19 206.76 993 223.68 1014.05 211.53 994.93 225.42 1013.09 214.94 997.04 227.76 1011.77 219.25 992.16 233.84 1010.15 223.45 991.67 237.01 1007.98 227.59 994.18 239.46 1006.35 232.43 994.39 243.65 1008.96 235.24 995.39 246.36 1006.85 239.75 994.89 249.86 1006.77 243 996.56 251.37 1005.29 246.33 998.65 252.6 1010.8 245.59 998.35 255.73 1010.63 248.64 995.57 261.85 1006.95 255.28 998.11 263.26 1012.52 254.94 995.46 269.4 1006.94 262.77 998.02 272.33 1009.63 265.63 997.71 276.69 1013.9 267.34 1003.6 277.09 1013.45 271.41 1005.95 278.83 1015.13 273.53 997.79 287.64 1014.78 277.84 994.12 294.37 1020.6 279.08 997.11 296.8 1015.56 286.15 990.89 303.89 1012.25 291.56 989.98 307.7 1008.99 296.73 992.79 308.79 1010.11 298.79 992.25 311.72 1006.06 303.74 994.68 314.26 1008.1 306.52 992.84 318.05 1004.49 311.32 988.45 324.03 1007.37 313.1 990.46 325.61 1007.61 315.7 989.84 329.59 1006.82 319.79 988.52 334.94 1002.1 327.1 989.31 337.42 1002.32 329.9 990.13 339.27 1006.48 329.83 990.7 343.29 1002.92 336.23 990.06 347.55 1004.11 339.43 995.4 348.51 1002.01 344.7 990.94 355.05 1004.37 347.3 995.29 354.96 1008.04 347.6 998.49 357.04 1006.78 352.25 999.64 359.34 1008.63 354.14 997.96 362.67 1009.38 356.08 996.33 367.33 1007.19 361.05 1000.11 368.73 1009.68 363.21 999.68 373.55 1012.66 366.06 1003.37 375.61 1012.79 370.17 1001.94 380.19 1014.59 372.88 1003.65 381.67 1017.15 373.88 1005.44 384.09 1021.16 375.01 1008.28 385.82 1021.4 378.24 1013.39 385.58 1022.47 380.34 1011.82 390.33 1025.81 382.25 1016.91 391.63 1025.38 386.74 1015.45 397.08 1028.82 389.36 1020.95 397.91 1032.74 391.1 1020.79 401.97 1036.04 393.17 1024.91 403.73 1040.67 394.62 1028.8 405.73 1042.23 397.97 1035.77 405.82 1044.86 400.57 1035.47 409.11 1047.02 402.44 1036.79 412.9 1055.48 402.11 1037.99 415.04 1057.37 403.85 1041.88 415.91 1060.02 405.43 1048.04 415.77 1060.85 408.37 1050.34 416.94 1064.07 409.01 1054.35 419.14 1072.1 408.89 1057.67 421.39 1071.25 413.55 1064.34 421.51 1077.08 414.15 1066.21 423.49 1084.3 413.05 1068.87 425.83 1090.41 413.4 1074.5 426.52 1094.18 415.15 1084.67 424.86 1107.59 411.63 1085.85 427.86 1114.89 411.09 1091.57 427.59 1245.36 338.8 1097.66 428.5 1241.08 345.69 1106.46 426.34 1234.02 352.69 1117.64 423.07 1218.98 364.57 1132.79 418.26 1157.72 403.87"
			/>
		</g>
	</g>
	<g id="react" class="logos react">
		<g>
			<polyline
				class="scribble"
				points="1107.58 238.5 1114.21 234.68 1098.72 247.44 1124.84 232.36 1096.48 252.9 1132.74 231.96 1094.31 256.78 1136.69 232.32 1095.88 260.12 1136.72 236.54 1097.35 261.9 1144.21 234.85 1096.97 265.83 1143.81 238.79 1094.44 269.77 1147.26 239.28 1096.2 271.77 1149.95 240.74 1093.62 276.72 1147.98 245.33 1096.04 278.48 1150.62 246.98 1099.21 279.69 1153.72 248.21 1102.91 281.78 1158.81 249.51 1099.18 286.95 1153.58 255.54 1105.24 287.13 1157.27 257.09 1107.89 288.5 1156.42 260.49 1109.53 291.67 1161.33 261.77 1108.79 294.85 1157.16 266.92 1111.62 296.29 1158.73 269.09 1120.18 295.89 1156.24 275.08 1126.72 296.65 1152.94 281.51 1134.94 295.06 1151.63 285.42"
			/>
			<polyline
				class="scribble"
				points="1234.45 325.24 1302.48 285.96 1250.22 319.47 1293.99 294.2"
			/>
			<polyline
				class="scribble"
				points="1232.48 217.58 1247.53 208.89 1231.67 220.88 1253.09 208.52 1240.49 219.63 1253.26 212.26 1242.97 222.23 1260.18 212.29 1242.52 225.85 1261.54 214.87 1251.59 223.18 1265.62 215.08 1254.33 224.57 1270.64 215.15 1254.51 228.19 1272.22 217.97 1261.63 228.42 1274.38 221.06 1261.53 231.99 1277.11 223 1264 233.95 1279.14 225.21 1267.31 235.27 1284.5 225.34 1271.86 235.03 1282.44 228.93 1277.9 236.03 1290.57 228.72 1274.15 241.91 1287.83 234.01 1280.36 241.43 1290.13 235.79 1283.13 244.25 1296.13 236.74 1282.19 248.29 1296.17 240.22 1287.14 249.6 1303.43 240.19 1288.98 253.1 1303.87 244.5 1294.28 253.41 1302.23 248.82 1291.31 258.74 1305.58 250.51 1295.61 259.49 1309.99 251.19 1296.98 261.17 1311.43 252.83 1295.67 265.73 1307.53 258.88 1293.27 270.15 1308.73 261.23 1291.81 275.17 1312.83 263.03 1280.09 285.5 1310.3 268.06"
			/>
			<polyline
				class="scribble"
				points="1201.69 284.06 1217.98 274.65 1204.42 284.83 1218.72 276.57 1205.05 288.15 1220.66 279.13 1207.23 290.46 1219.23 283.53 1204.64 296.02 1223.61 285.06 1211.07 296 1221.45 290.01 1211.68 298.26 1220.59 293.11 1208.73 303.15 1225.17 293.66 1213.66 304.15 1227.17 296.35 1211.07 308.04 1222.66 301.34 1213.92 309.88 1225.58 303.15 1214.54 312.85 1229.97 303.95"
			/>
			<polyline
				class="scribble"
				points="1173.17 335.86 1206.85 316.41 1176.19 338.28 1231.24 306.5 1185.37 336.5 1230.22 310.6 1196.5 333.19 1242.7 306.52 1198.75 334.35 1309.12 270.63 1209.2 330.84 1306.81 274.48 1220.62 328.79 1305.42 279.83 1216.98 333.55 1304.85 282.81 1222.39 333.77 1231.08 328.75 1219.94 338.76 1235.61 329.71 1218.02 343.48 1234.02 334.24 1224.47 343.18 1238.76 334.93 1221.33 347.86 1234.93 340 1225.02 349.37 1237.49 342.17 1222.16 354.76 1238.31 345.44 1222.71 357.76 1240.38 347.55 1223.83 359.52 1235.35 352.87 1220.84 365.5 1235.63 356.96 1226.06 365.44 1236.73 359.27 1221.59 372.58 1241.1 361.31 1222.02 376.86 1235.21 369.24 1225.33 379.04 1235.93 372.92 1223.89 383.53 1240.06 374.19 1223.39 387.61 1238.51 378.88 1222.31 391.92 1237.51 383.15 1216.41 399.75 1234.62 389.24 1219.44 401.04 1238.9 389.8 1210.72 409.1 1233.7 395.84"
			/>
			<polyline
				class="scribble"
				points="1126.04 388.24 1143.53 378.14 1128.81 390.32 1147.49 379.53 1134.33 390.48 1145.27 384.17 1136.24 392.04 1147.02 385.82 1135.04 395.91 1148.09 388.37 1140.7 396.29 1151.05 390.31 1143.76 398.7 1158.35 390.27 1142.54 403.83 1162.05 392.57 1150.26 402.23 1162.97 394.89 1149.06 405.37 1163.53 397.02 1151.93 407.43 1166.78 398.86 1152.96 410.37 1167.43 402.01 1156.84 412.38 1176.91 400.79 1164.17 412.52 1177.88 404.61 1165.92 415.28 1184.63 404.48 1168.45 418.38 1188.24 406.95 1173.54 419.16 1189.86 409.74 1173.67 422.56 1191.51 412.26 1180.21 422.27 1198.59 411.66 1185.64 423.7 1207.02 411.36 1191.38 423.19 1238.02 396.26 1192.62 425.65 1237.01 400.02 1194.91 428.2 1229.33 408.33 1202.52 428.25 1226.72 414.27 1213.06 424.65 1220.26 420.5"
			/>
			<polyline
				class="scribble"
				points="1186.05 120.27 1212.89 104.78 1197.13 117.07 1214.53 107.02 1202.47 117.17 1216.9 108.84 1211.96 116.21 1221.27 110.84 1212.21 119.95 1227.28 111.25 1215.81 120.33 1223.74 115.75 1217.98 122.89 1225.76 118.4 1214.75 128.65 1233.05 118.09 1215.07 130.82 1234.95 119.35 1220.22 131.49 1229.86 125.92 1223.7 133.3 1233.84 127.45 1221.96 137.93 1233.11 131.49 1219.9 142.46 1236.07 133.13 1224.34 142.7 1235.67 136.16 1224.93 146.14 1235.45 140.07 1221.75 151.48 1239.17 141.42 1224.06 152.87 1239.71 143.83 1220.89 157.4 1235.04 149.23 1221.66 160.99 1239.26 150.83 1220.01 166.5 1235.9 157.33 1224.18 167.47 1241.14 157.68 1221.61 173.52 1240.76 162.47 1222.87 176.88 1239.02 167.56 1222.04 180.15 1235.57 172.34 1222.62 183.41 1238.84 174.04 1222.09 187.22 1240.27 176.72 1221.38 191.82 1238.77 181.77 1220.74 194.53 1238.7 184.16"
			/>
			<polyline
				class="scribble"
				points="1180.27 209.46 1205.67 194.79 1182.95 210.61 1205.1 197.82 1187.54 210.99 1213.05 196.26 1192.34 212.28 1213.6 200 1202.56 210.97 1234.62 192.46 1208.18 211.31 1237.59 194.33 1212.93 212.01 1232.62 200.65 1210.34 216.88 1236.63 201.7 1208.92 221.86 1238.15 204.99 1211.79 222.72 1243.5 204.41 1207.95 228.87 1246.41 206.67 1209.69 231.59 1227.16 221.51 1202.76 238.01 1224.68 225.35 1205.32 240.07 1224.35 229.08 1205.65 242.68 1225.13 231.44"
			/>
			<polyline
				class="scribble"
				points="1129.34 163.61 1139.96 157.48 1130.13 167.67 1142.71 160.41 1134.13 168.23 1145.74 161.52 1131.58 173.3 1144.39 165.91 1137.59 172.83 1152.28 164.35 1138.74 174.56 1152.38 166.69 1140.87 176.42 1153.07 169.37 1136.8 181.59 1156.88 170 1140.01 183.42 1157.72 173.2 1146.07 183.62 1157.14 177.23 1148.64 186.18 1160.43 179.37 1146.06 190.62 1161.49 181.71"
			/>
			<polyline
				class="scribble"
				points="1093.59 207.42 1127.26 187.98 1105.69 204.45 1131.46 189.58 1108.11 205.76 1134.73 190.39 1112.36 206.46 1144.54 187.88 1123.51 203.72 1147.56 189.84 1128.43 204.41 1164.38 183.65 1133.57 204.15 1167.6 184.5 1142.29 203.72 1170.48 187.45 1142.55 206.75 1166.43 192.97 1150.87 204.53 1169.56 193.74 1153.35 207.25 1179.46 192.17 1160.8 206.87 1185.2 192.78 1164.19 207.8 1187.34 194.44 1163.76 210.75 1189.38 195.96 1163.85 214.53 1195.37 196.33 1163.02 217.65 1201.04 195.7 1169.07 218.5 1183.57 210.13 1166.96 222.39 1186.38 211.17 1169.76 224.14 1182.55 216.75 1171.4 227.75 1190.29 216.85 1175.8 228.01 1189.19 220.28 1177.25 231.3 1189.04 224.49 1173.84 235.7 1193.56 224.31 1180.49 234.3 1191.79 227.77 1182.15 237.93 1193.13 231.59 1179.61 242.68 1195.33 233.6 1180.9 244.4 1193.49 237.13 1187.41 244.96 1195.63 240.21 1186.82 248.57 1201.52 240.09 1188.74 250.19 1199.72 243.85 1189.54 252.79 1202.08 245.55 1189.91 255.96 1225.28 235.54 1192.68 257 1221.71 240.23 1192.31 261.49 1219.1 246.02 1190.95 266.53 1215.47 252.37 1189.95 271.43 1217.43 255.57 1185.25 278.75 1212.99 262.74 1185.77 281.38 1210.51 267.09 1180.4 288.45 1211.33 270.59 1174.99 294.75 1213.19 272.7 1172.62 299.81 1213.63 276.13 1173.71 302.19 1203.47 285 1167.01 309.99 1195.82 293.36 1161.86 316.52 1192.01 299.11 1157.81 321.83 1194.66 300.55"
			/>
			<polyline
				class="scribble"
				points="1109.21 337.88 1134.3 323.4 1111.48 340.1 1142.19 322.37 1114.92 340.66 1142.98 324.46 1120.91 339.89 1153.95 320.82 1126.3 341.19 1157.44 323.21 1134.99 338.51 1188.82 307.43 1139.84 338.06 1184.45 312.31 1148.1 337.37 1179.16 319.43 1146.7 340.86 1184.08 319.28 1145.51 345.31 1193.98 317.32 1137.25 354.34 1203.81 315.91 1131.67 361.52 1167.64 340.75"
			/>
			<polyline
				class="scribble"
				points="1050.33 285.25 1068.97 274.49 1054.34 285.98 1068.95 277.54 1056.59 287.06 1070.31 279.14 1055.98 291.95 1072.34 282.51 1055.24 295.19 1073.28 284.78 1060.13 295.83 1072 288.98 1062.73 298.63 1074.52 291.82 1064.48 301.16 1073.3 296.06 1063.31 306.33 1081.26 295.97 1061.86 309.81 1078.64 300.12 1064.71 312.53 1082.66 302.17 1067.09 315.28 1085.88 304.44 1071.52 316.09 1085.04 308.28 1072.57 319.65 1089.24 310.02"
			/>
			<polyline
				class="scribble"
				points="1038.68 330.16 1058.34 318.81 1037.07 333.64 1064.74 317.67 1046.23 332.88 1068.78 319.86 1052.25 333.5 1089.19 312.17 1055.36 335.22 1088.49 316.09 1063.98 334.83 1089.76 319.95 1070.44 335.03 1095.24 320.71 1074.6 335.64 1095.52 323.56 1078.14 337.59 1103.22 323.11 1081.24 339.63 1107.56 324.43 1087.52 340.48 1119.68 321.92 1089.33 343.66 1121.83 324.9 1090.37 345.5 1126.97 324.37 1091.22 347.61 1108.1 337.86 1096.57 348.4 1105.67 343.15 1098.04 351.65 1108.78 345.45 1099.01 354.73 1113.59 346.31 1097.05 358.51 1116.19 347.45 1100.25 359.35 1116.76 349.82 1103.5 362.05 1120.27 352.37 1108.03 363.96 1119.9 357.11 1104.65 369.59 1125.27 357.68 1109.57 369.82 1121.7 362.82 1109.91 374.03 1128.84 363.1 1117.03 373.21 1158.93 349.02 1117.76 375.84 1154.7 354.51 1106.02 385.68 1152.37 358.92"
			/>
			<polyline
				class="scribble"
				points="1144.67 125.69 1177.08 106.98 1129.56 138.78 1194.88 101.07"
			/>
			<polyline
				class="scribble"
				points="1048.46 116.79 1069.33 104.75 1055.88 116.38 1070.95 107.68 1061.76 117.19 1074.67 109.74 1065.29 118.33 1081.6 108.92 1067.1 119.92 1084.34 109.97 1071.93 121.66 1084.23 114.56 1076.16 122.42 1089.54 114.69 1079.24 124.88 1092.41 117.28 1081.3 126.71 1094.17 119.28 1082.23 130.05 1099.31 120.19 1085.61 130.5 1104.26 119.73 1087.36 133.9 1103.97 124.31 1090.32 135.11 1106.69 125.66 1093.84 137.15 1111.19 127.13 1096.62 139.45 1115.28 128.68 1102.41 140.41 1113.85 133.81 1105.58 142.52 1117.91 135.4 1104.63 146.47 1123.33 135.68 1111.71 146.17 1120.9 140.86 1111.72 150.74 1123.92 143.69 1112.92 153.41 1200.52 102.84 1111.01 158.67 1208.91 102.15 1103.71 166.39 1215.78 101.69 1102.32 170.6 1146.58 145.04 1097.2 176.74 1135.97 154.35 1087.63 186.7 1142.61 154.97 1087.3 189.31 1121.17 169.75"
			/>
			<polyline
				class="scribble"
				points="1040.41 214.78 1076.15 194.14 1048.9 213.26 1117.83 173.47 1060.98 210.32 1115.15 179.05 1070.11 207.78 1109.24 185.18 1074.26 208.72 1104.72 191.13 1069.83 214.63 1115.54 188.23 1068.34 218.32 1119.19 188.96 1063.76 224.68 1091.01 208.94 1061.84 228.3 1089.91 212.09 1057.26 233.7 1083.98 218.28 1059.09 235.15 1087.1 218.97 1053.14 243.11 1079.6 227.83"
			/>
			<polyline
				class="scribble"
				points="999.46 227.49 1055.41 195.19 1013.45 222.31 1061.13 194.78 1022.88 220.74 1070.91 193.01 1029.96 221.23 1039.99 215.44 1030.38 225.03 1044.04 217.15 1029.59 229.96 1044.69 221.25 1031.69 231.21 1046.74 222.52 1031.11 234.73 1043.59 227.53 1033.54 237.66 1048.9 228.79 1032.53 242.19 1048.96 232.7 1032.74 244.67 1051.11 234.07 1037.04 244.51 1049.25 237.45 1032.69 250.4 1050.38 240.19 1034.86 252.37 1049.98 243.64 1039.31 253.75 1076.71 232.16 1039.7 258.02 1076.81 236.6 1042.66 260.56 1073.2 242.93 1040.64 265.89 1068.27 249.93 1039.92 268.87 1064.44 254.71 1036.71 275.3 1060.59 261.51 1036.62 279.88 1058.29 267.37 1032.17 284.76 1060.26 268.54 1031.7 288.97 1065.45 269.48 1033.89 290.11 1066.95 271.02 1033.14 293.63 1064.89 275.3 1024.92 301.89 1050.68 287.02 1028.35 302.99 1046.41 292.56 1026.79 306.64 1048.05 294.37 1021.82 312.25 1044.36 299.25"
			/>
			<polyline
				class="scribble"
				points="965.91 228.87 992.13 213.73 961.37 233.89 1009.15 206.31 953.75 242 1033.1 196.19 944.68 251.36 1034.6 199.45 942.75 254.93 1041.75 197.77 945.2 256.8 1051.3 195.55 945.91 260.8 966.22 249.07 943.91 264.6 963.38 253.36 946.18 267.13 959.36 259.51 944.58 270.88 959.02 262.54 947.05 272.16 955.85 267.08 943.65 276.54 961.14 266.44 949.8 275.45 958.19 270.61 946.01 281.6 960.29 273.35 952.68 281.71 965.05 274.57 951.41 285.89 968.2 276.2 955.31 286.89 965.83 280.81 953.81 291.13 970.7 281.38 960.53 290.36 972.37 283.53 961.38 294.44 978 284.85 960.98 297.48 973.83 290.06 967.97 297.14 977.25 291.79 970.68 299.73 981.38 293.56 969.2 303.65 987.02 293.36 977.4 303.1 986 298.14 979.8 305.93 992.78 298.44 977.46 309.78 996.42 298.83 979.89 312.56 998.75 301.68 988.49 311.92 1001.5 304.4 988.32 315.94 1010.27 303.26 995.83 314.14 1011.94 304.83 997.51 315.74 1012.33 307.18 998.78 317.63 1011.97 310.01 1002.45 318.99 1020.97 308.3 1002.42 321.96 1018.48 312.69 1012.09 320.64 1045.79 301.18 1011.58 325.35 1045.56 305.74 1017.53 324.81 1042.14 310.6 1018.81 327.64 1040.43 315.15 1021 329.05 1040.78 317.63 1021.5 331.85 1049.95 315.43 1020.37 337.02 1055.51 316.73 1013.74 343.94 1036.54 330.78 1016.69 345.27 1033.57 335.53 1013.21 351.62 1036 338.46 1018.05 353.34 1031.74 345.44 1016.01 356.97 1031.93 347.78 1018.35 359.34 1030.85 352.12 1012.35 365.62 1031.31 354.67 1012.22 368.78 1033.19 356.67 1014.23 371.35 1033.12 360.44 1013.35 375.52 1027.35 367.44 1017.13 377.91 1027.99 371.64 1018.66 379.61 1027.39 374.57 1018.78 382.87 1028.29 377.37 1018.36 387.47 1027.26 382.33 1016.5 391.63 1033.44 381.85 1014.05 396.34 1032.07 385.93 1015.41 399.5 1032.57 389.6 1017.35 402.41 1034.56 392.48 1023.19 401.45 1031.92 396.41 1018.08 407.22 1034.82 397.56 1023.46 406.64 1037.08 398.77 1022.83 410.26 1035.85 402.75 1025.04 413.4 1036.28 406.91 1028.42 415.67 1041.23 408.27 1032 417.52 1045.38 409.79 1032.25 420.92 1048.87 411.32 1036.83 421.24 1048.76 414.36 1035.96 425.98 1060.67 411.71 1042.68 425.99 1146.9 365.81 1045.61 428.41 1140.62 373.56 1057.19 425.21 1139.5 377.69 1060.59 426.92 1125.11 389.67 1072.01 422.97 1116.66 397.19"
			/>
			<polyline
				class="scribble"
				points="1031.52 108.8 1041.72 102.91 1022.5 118.23 1052.12 101.13 1021.03 122.63 1053.61 103.82 1017.22 128.49 1060.36 103.59 1015.81 132.47 1062.87 105.3 1017.23 136.06 1038.07 124.03 1018.03 139.64 1035.11 129.77 1015.19 145.7 1032.55 135.68 1017.69 147.59 1033.3 138.58 1015.35 152.96 1028.18 145.55 1012.65 157.34 1027.41 148.82 1014.6 158.73 1032.72 148.27 1016.89 161.26 1032.07 152.5 1011.93 166.51 1027.66 157.43 1011.66 170.65 1026.44 162.11 1013.85 171.77 1032.01 161.28 1016.88 174.58 1030.71 166.59 1013.58 179.08 1031.2 168.91 1016.63 180.98 1032.65 171.73 1013.1 187.59 1031.71 176.85 1020.15 186.9 1034.94 178.36 1018.65 190.55 1035.32 180.92 1017.05 195.85 1033.84 186.15 1020.66 197.47 1033.1 190.29 1016.52 202.84 1034.58 192.42"
			/>
			<polyline
				class="scribble"
				points="1105.86 239.5 1116.78 233.19 1096.74 248.98 1127.31 231.34 1095.75 253.11 1128.47 234.22 1092.49 258.65 1134.72 234.27 1091.72 262.26 1136.67 236.31 1094.23 265.22 1143.63 236.7 1096.21 268.12 1146.97 238.82 1094.86 273.32 1149.46 241.8 1098.67 274.46 1153.23 242.96 1098.07 278.82 1150.98 248.27 1096.7 282.44 1151.89 250.57 1099.92 283.09 1158.42 249.31 1104.36 284.38 1159.23 252.7 1100.79 288.83 1155.56 257.21 1103.14 291.45 1155.06 261.48 1107.08 291.56 1160.76 260.57 1113.74 292.27 1159.28 265.98 1112.77 295.43 1159.32 268.56 1119.55 295.18 1159.54 272.09 1121.84 298.43 1155.64 278.92 1134.83 294.31 1154.81 282.77"
			/>
			<polyline
				class="scribble"
				points="1105.86 239.5 1116.78 233.19 1096.74 248.98 1127.31 231.34 1095.75 253.11 1128.47 234.22 1092.49 258.65 1134.72 234.27 1091.72 262.26 1136.67 236.31 1094.23 265.22 1143.63 236.7 1096.21 268.12 1146.97 238.82 1094.86 273.32 1149.46 241.8 1098.67 274.46 1153.23 242.96 1098.07 278.82 1150.98 248.27 1096.7 282.44 1151.89 250.57 1099.92 283.09 1158.42 249.31 1104.36 284.38 1159.23 252.7 1100.79 288.83 1155.56 257.21 1103.14 291.45 1155.06 261.48 1107.08 291.56 1160.76 260.57 1113.74 292.27 1159.28 265.98 1112.77 295.43 1159.32 268.56 1119.55 295.18 1159.54 272.09 1121.84 298.43 1155.64 278.92 1134.83 294.31 1154.81 282.77"
			/></g
		>
	</g>
	<g id="javascript" class="logos js">
		<g>
			<polyline
				class="scribble"
				points="1199.93 250.82 1289.73 198.98 1209.44 249.38 1293.4 200.9 1214.46 250.04 1289.29 206.84 1221.9 249.46 1288.29 211.13 1225.63 251.3 1289.32 214.53 1229.91 251.95 1292.49 215.82 1232.04 253.81 1289.18 220.81 1240.62 253.41 1287.86 226.14 1241.96 256.49 1292.12 227.54 1247.95 257.42 1288.68 233.91 1247.02 261.28 1288.78 237.17 1250.16 263.98 1290.32 240.79 1256.79 263.38 1290.96 243.64 1258.76 265.55 1287.02 249.24 1260.39 268.06 1289.21 251.42 1262.35 271.13 1289.93 255.21"
			/>
			<polyline
				class="scribble"
				points="1202.21 281.58 1214.85 274.29 1203.71 284.27 1215.25 277.61 1203.87 287.58 1219.59 278.5 1201.63 292.13 1223.06 279.76 1200.43 295.22 1230.89 277.63 1201.64 298.76 1232 281.24 1202.16 301.19 1233.25 283.24 1208.83 301.36 1232.34 287.79 1210.38 303.83 1287.94 259.05 1215.98 303.86 1293.34 259.19 1218.48 305.84 1289.13 265.05 1222.65 308.04 1291.28 268.42 1228.75 309.14 1288.24 274.79 1233.06 310.7 1293.25 275.95 1231.03 315.34 1291.37 280.5 1239.3 313.71 1289.39 284.79 1238.18 318.32 1287.15 290.05 1244.24 318.8 1290.75 291.95 1248.85 318.6 1290.22 294.71 1247.53 323.38 1288.71 299.61 1250.35 325.61 1293.24 300.85 1253 327.15 1287.68 307.13 1253.49 330.24 1289.55 309.43 1262.28 328.61 1289.69 312.78 1258.43 334.98 1291.21 316.06 1260.65 337.05 1288.79 320.8 1264.59 338.19 1292.13 322.29 1262.81 342.27 1289.77 326.71 1266.59 342.68 1287.23 330.76 1269.72 345.1 1287.89 334.61 1264.63 350.7 1288.87 336.71 1266.79 352.87 1292.05 338.29 1271.18 353.64 1291.09 342.15 1270.37 356.69 1288.14 346.43 1266.28 361.88 1290.39 347.96 1266.44 365.32 1286.92 353.5 1269.18 366.5 1291.37 353.68 1266.17 370.87 1290.48 356.83 1265.03 375.25 1292.62 359.32 1267.34 376.32 1287.87 364.47 1258.56 385.33 1289.94 367.21 1253.22 391.08 1291.44 369.01"
			/>
			<polyline
				class="scribble"
				points="1188.16 356.02 1215.85 340.03 1186.06 360.29 1217.31 342.25 1190.42 361.01 1225.15 340.96 1192.63 362.54 1222.36 345.38 1193.03 365.41 1228.81 344.75 1193.31 368.31 1231.19 346.44 1193.94 370.3 1235.39 346.37 1200 370.3 1232.86 351.32 1202 372.01 1236.25 352.23 1208.97 372.43 1238.08 355.63 1207.79 376.65 1237.13 359.71 1216.82 373.83 1239.82 360.55 1222.63 374.18 1238.49 365.02"
			/>
			<polyline
				class="scribble"
				points="1113.08 252.08 1293.62 147.85 1120.09 250.61 1289.06 153.05 1123.11 251.94 1290.93 155.05 1130.87 249.81 1293.58 155.86 1136.2 250.54 1288.19 162.79 1140.6 252.19 1289.87 166 1140.83 256.35 1288.32 171.2 1143.88 257.55 1288.96 173.79 1144.39 259.62 1293.41 173.58 1147.15 261.35 1288.78 179.59 1144.32 266.64 1289.82 182.63 1142.18 270.37 1293.17 183.2 1144.7 271.7 1289.7 187.97 1146.12 274.09 1291.84 189.95 1144.23 278.68 1288.75 195.24 1145.8 281.11 1288.31 198.84 1142.05 287.55 1179.02 266.2 1144.36 288.64 1175.29 270.79 1142.62 293.19 1175.55 274.18 1141.15 298.07 1171.99 280.26 1144.94 298.58 1173.39 282.15 1146.58 301.18 1173.4 285.69 1147.47 304.47 1169.36 291.83 1146.47 307.49 1174.51 291.29 1141.59 314.36 1173.52 295.92 1146.41 314 1168.41 301.29 1144.36 319.76 1173.61 302.87 1147.05 321.81 1176.84 304.61 1146.57 326.09 1177.6 308.17 1147.55 328.9 1174.64 313.25 1145.09 332.85 1179.74 312.84 1141.61 337.49 1179.65 315.53 1141.52 341.42 1182.45 317.79 1142.92 342.99 1180.71 321.17 1147.22 344.75 1184.73 323.09 1141.52 350.4 1189.97 322.43 1143.63 351.89 1190.41 324.88 1141.18 357.67 1194.73 326.75 1146.73 357.51 1192.56 331.05 1141.23 364.69 1199.07 331.3 1140.64 368.25 1198.65 334.76 1145.58 368.4 1204.89 334.15 1140.19 374.42 1208.28 335.11 1141.62 376.21 1212.27 335.42 1136.82 382.88 1210.13 340.55 1137.74 385.1 1161.96 371.11 1131.82 391.29 1161.83 373.97"
			/>
			<polyline
				class="scribble"
				points="1079.67 358.53 1113.69 338.89 1083.45 360.74 1113.31 343.49 1084.48 363.05 1112.55 346.85 1086.43 366.13 1116.43 348.81 1087.91 369.8 1115.82 353.68 1085.97 373.92 1112.38 358.67 1088.79 376.22 1113.73 361.83 1094.4 375.41 1112.13 365.17 1102.56 374.26 1109.2 370.42"
			/>
			<polyline
				class="scribble"
				points="960.15 102.5 960.77 102.14 961.17 105.8 971.33 99.94 962.8 107.62 972.72 101.89 965.62 109.74 984.3 98.95 964.82 113.12 986.61 100.54 959.77 120.17 992.14 101.48 959.1 124.12 1002.55 99.03 961.45 126.96 1007.15 100.57 963.68 129.36 1015.82 99.25 959.68 135.06 1020.87 99.73 961.8 137.7 1026.93 100.1 965.05 138.52 1029.22 101.47 961.47 143.84 1037.89 99.71 963.71 144.92 1041.27 100.14 965.2 147.59 1050.01 98.62 963.08 152.35 1050.31 101.99 960.57 158.38 1060.02 100.96 962.84 160.25 1066.26 100.54 963.73 162.06 1068.84 101.38 965.29 165.19 1079.62 99.18 965.97 168.65 1085.41 99.7 961.86 175.04 1091.53 100.17 965.5 177.18 1095.93 101.88 963.87 181.87 1105.49 100.1 960.27 187.9 1115.29 98.4 962.33 190.52 1120.56 99.17 962.56 193.82 1125.02 100.02 963.76 197.28 1132.32 99.96 959.75 202.7 1139.11 99.14 959.57 205.32 1141.1 100.51 960.24 207.33 1145.26 100.51 965.47 208.48 1153.33 100.02 961.17 215.42 1163.21 98.77 964.86 217.77 1167.52 100.76 963.62 221.82 1173.46 100.67 965.61 224.17 1183.13 98.59 959.72 230.24 1187.04 98.99 964.13 231.47 1189.16 101.55 961.16 235.56 1195.48 100.27 960.57 239.19 1198.03 102.09 965.53 238.81 1207.47 99.13 963.08 243.04 1210.9 99.96 962.87 247.01 1217.46 100.02 963.12 251.08 1222.49 101.33 963.55 253.34 1227.38 101.02 960.39 258.93 1232.1 102.05 959.91 262.88 1239.68 101.36 962.04 264.85 1247.21 100.21 965.95 265.96 1250.35 101.76 964.55 270.22 1256.78 101.51 959.91 275.53 1260.37 102.06 959.15 278.77 1265.55 101.87 963.34 280.21 1275.59 99.94 965.25 281.89 1281.05 99.57 964.91 285.31 1285.11 100.44 965.39 289.39 1291.41 101.16 965.45 292.01 1292.41 103.24 960.89 298.12 1289.8 108.22 963.19 299.54 1292.81 109.23 965.62 301.54 1289.02 114.82 965.32 305.32 1288.92 118.49 960.08 311.74 1293.56 119.21 961.07 314.1 1287.03 125.91 962.36 315.98 1287.59 128.21 962.17 319.15 1291.74 128.87 961.89 321.93 1287.6 133.88 959.76 325.57 1290.39 134.68 962.86 326.75 1288.72 138.61 960.23 331.81 1292.54 139.96 964.16 332.83 1289.87 144.78 965.71 336.45 1114.72 250.42 963.97 341.74 1110.75 256.99 960.85 347.92 1114.37 259.28 963 351.01 1115.15 263.17 960.29 356.44 1117.01 265.96 965.65 357.26 1111.22 273.22 962.11 363.6 1116.31 274.58 965.39 365.8 1112 281.16 965.77 368.32 1111.14 284.39 963.84 373.32 1113.11 287.13 962.68 377.69 1116.41 288.94 963.83 379.41 1115.85 291.64 960.16 384.06 1113.66 295.44 960.06 387.5 1113.75 298.77 963.09 388.13 1111.41 302.49 964.36 391.18 1115.83 303.72 965.06 393.33 1113.67 307.53 959.59 399.93 1114.72 310.37 961.27 402.22 1116.57 312.56 961.56 406.35 1113.94 318.38 961.97 408.44 1116.1 319.46 960.8 412.11 1116.7 322.1 963.45 414.89 1113.33 328.36 965.57 416.22 1111.41 332.02 961.31 421.34 1114.34 332.99 962.91 423.95 1111.15 338.37 965.31 425.6 1055.47 373.55 965.83 428.97 1052.08 379.18 974.77 427.97 1055.21 381.52 980.03 429.35 1060.22 383.05 983.33 429.83 1058.17 386.62 995.13 426.92 1064.25 387.02 999.58 427.17 1063.33 390.37 1005.12 427.31 1065.91 392.22 1012.65 426.51 1067.06 395.09 1018.2 426.23 1073.28 394.42 1020.66 429.35 1074.5 398.27 1027.81 427.68 1080.27 397.4 1036.62 426.92 1080.76 401.43 1043.1 426.92 1085.2 402.62 1046.48 427.91 1093.22 400.93 1048.08 429.79 1096.27 401.96 1053.41 429.12 1096.65 404.15 1058.19 429.92 1104.08 403.42 1066.65 429.36 1120.73 398.13 1073.49 428.5 1165.32 375.48 1079.17 429.04 1163.2 380.52 1085 428.12 1170.37 378.83 1091.81 427.16 1166.25 384.18 1101.2 426.14 1174.42 383.87 1102.02 429.14 1176.38 386.21 1110.56 427.19 1177.33 388.64 1113.86 429.6 1179.28 391.83 1123.49 428.44 1183.48 393.81 1126.99 429.2 1184.84 395.81 1134.91 427.27 1189.42 395.79 1142.47 426.56 1191.39 398.31 1144.01 428.87 1194.76 399.57 1149.7 429.21 1201.03 399.57 1157.83 427.05 1203.63 400.61 1160.25 429.96 1210 401.23 1168.49 427.76 1213.79 401.61 1175.14 428.21 1219.91 402.36 1180.55 429.59 1227.72 402.36 1187.84 428.94 1238.64 399.61 1198.92 426.68 1292.57 372.6 1201.15 428.98 1290.55 377.36 1210.92 427.19 1293.61 379.45 1216.77 426.5 1292.71 382.66 1221.63 428.19 1289.86 388.8 1228.84 428.32 1291 392.43 1233.19 428.81 1293.14 394.2 1243.84 426.52 1289.43 400.2 1246.25 429.7 1290.88 403.94 1256.83 427.04 1293.33 405.96 1260.66 427.27 1289.45 410.65 1269.92 426.04 1290.07 414.41 1269.67 429.43 1290.12 417.62 1277.63 427.29 1289.42 420.49 1279.27 429.71 1286.99 425.26 1283.63 429.69 1288.25 427.02"
			/>
		</g>
	</g>
</svg>
