<svg
	xmlns="http://www.w3.org/2000/svg"
	xmlns:xlink="http://www.w3.org/1999/xlink"
	viewBox="0 0 1500 500"
>
	<defs>
		<style>
			svg {
				--code-stagger: 0.6s;
				--code-delay: 0.4s;
				--logos-duration: 15s;
				--logos-delay: 0.3s;
				--stroke-offset-hidden: 1400;
				--stroke-offset-visible: 0;
			}
			.clip-path-1,
			.logo {
				fill: none;
			}
			.background {
				fill: #2a2b24;
			}
			.close-red {
				fill: #ff5b52;
			}
			.minimize-yellow {
				fill: #e6c028;
			}
			.maximize-green {
				fill: #52c22c;
			}
			.pink {
				fill: #f42670;
			}
			.orange {
				fill: #fd9620;
			}
			.blue {
				fill: #9effff;
			}
			.white,
			.browser-background {
				fill: #f8f8f1;
			}
			.purple {
				fill: #584872;
			}
			.purple,
			.green,
			.pink,
			.orange,
			.blue,
			.white {
				opacity: 0.75;
			}
			.green {
				fill: #a6e22e;
			}
			.clip-path-2 {
				clip-path: url(#clip-path);
			}
			.navigation {
				fill: #515151;
			}
			.logo {
				stroke: #333;
				stroke-miterlimit: 10;
				stroke-width: 2px;
			}
			#code g {
				opacity: 0;
			}
			#react,
			#javascript,
			#logos #svelte {
				stroke-dasharray: 1400;
				stroke-dashoffset: 1400;
			}
			#code g#block-1,
			#code g#block-2,
			#code g#block-3,
			#code g#block-4,
			#code g#block-5,
			#javascript,
			#logos #svelte,
			#react {
				animation-duration: var(--logos-duration);
				animation-iteration-count: infinite;
				animation-direction: normal;
				animation-timing-function: linear;
			}
			#code g#block-1 {
				animation-name: block-1;
			}
			#code g#block-2 {
				animation-name: block-2;
			}
			#code g#block-3 {
				animation-name: block-3;
			}
			#code g#block-4 {
				animation-name: block-4;
			}
			#code g#block-5 {
				animation-name: block-5;
			}
			#javascript {
				animation-name: javascript;
			}
			#svelte {
				animation-name: svelte;
			}
			#react {
				animation-name: react;
			}
			@keyframes block-1 {
				0% {
					opacity: 0;
					transform: translateX(-50px);
				}
				5% {
					opacity: 1;
					transform: translateX(0);
				}
				82% {
					opacity: 1;
					transform: translateX(0);
				}
				84% {
					opacity: 0;
					transform: translateX(50px);
				}
			}
			@keyframes block-2 {
				3% {
					opacity: 0;
					transform: translateX(-50px);
				}
				8% {
					opacity: 1;
					transform: translateX(0);
				}
				83.5% {
					opacity: 1;
					transform: translateX(0);
				}
				85.5% {
					opacity: 0;
					transform: translateX(50px);
				}
			}
			@keyframes block-3 {
				24% {
					opacity: 0;
					transform: translateX(-50px);
				}
				32% {
					opacity: 1;
					transform: translateX(0);
				}
				85% {
					opacity: 1;
					transform: translateX(0);
				}
				87% {
					opacity: 0;
					transform: translateX(50px);
				}
			}
			@keyframes block-4 {
				55% {
					opacity: 0;
					transform: translateX(-50px);
				}
				58% {
					opacity: 1;
					transform: translateX(0);
				}
				86.5% {
					opacity: 1;
					transform: translateX(0);
				}
				88.5% {
					opacity: 0;
					transform: translateX(50px);
				}
			}
			@keyframes block-5 {
				56% {
					opacity: 0;
					transform: translateX(-50px);
				}
				61% {
					opacity: 1;
					transform: translateX(0);
				}
				88% {
					opacity: 1;
					transform: translateX(0);
				}
				90% {
					opacity: 0;
					transform: translateX(50px);
				}
			}
			@keyframes javascript {
				8% {
					stroke-dashoffset: var(--stroke-offset-hidden);
				}
				17% {
					stroke-dashoffset: var(--stroke-offset-visible);
				}
				28% {
					stroke-dashoffset: var(--stroke-offset-visible);
				}
				37% {
					stroke-dashoffset: var(--stroke-offset-hidden);
				}
			}
			@keyframes svelte {
				37% {
					stroke-dashoffset: var(--stroke-offset-hidden);
				}
				46% {
					stroke-dashoffset: var(--stroke-offset-visible);
				}
				57% {
					stroke-dashoffset: var(--stroke-offset-visible);
				}
				66% {
					stroke-dashoffset: var(--stroke-offset-hidden);
				}
			}
			@keyframes react {
				66% {
					stroke-dashoffset: var(--stroke-offset-hidden);
				}
				75% {
					stroke-dashoffset: var(--stroke-offset-visible);
				}
				86% {
					stroke-dashoffset: var(--stroke-offset-visible);
				}
				95% {
					stroke-dashoffset: var(--stroke-offset-hidden);
				}
			}
		</style>
		<clipPath id="clip-path">
			<rect
				id="clip-mask"
				class="clip-path-1"
				x="847.13"
				y="29.67"
				width="561.01"
				height="440.66"
				rx="19"
			/>
		</clipPath>
	</defs>
	<rect id="background" class="background" width="1500" height="500" rx="12" />
	<g id="window-controls">
		<circle id="red" class="close-red" cx="25" cy="24.24" r="6" />
		<circle id="yellow" class="minimize-yellow" cx="44.79" cy="24.24" r="6" />
		<circle id="green" class="maximize-green" cx="64.57" cy="24.24" r="6" />
	</g>
	<g id="code">
		<g id="block-1">
			<rect class="pink" x="107.13" y="61.64" width="68.22" height="17.21" rx="8.6" />
			<rect class="orange" x="183.5" y="61.64" width="68.22" height="17.21" rx="8.6" />
			<rect class="orange" x="258.07" y="61.64" width="59.73" height="17.21" rx="8.6" />
			<rect class="orange" x="348.59" y="61.64" width="114.54" height="17.21" rx="8.6" />
			<rect class="pink" x="135.77" y="85.08" width="25.5" height="17.21" rx="8.6" />
			<rect class="blue" x="172.76" y="85.08" width="110.69" height="17.21" rx="8.6" />
			<rect class="pink" x="297.65" y="85.08" width="53.44" height="17.21" rx="8.6" />
		</g>
		<g id="block-2">
			<rect class="pink" x="136.08" y="124.39" width="30.47" height="17.21" rx="8.6" />
			<rect class="orange" x="171.39" y="124.39" width="104.75" height="17.21" rx="8.6" />
			<rect class="white" x="297.7" y="124.39" width="53.44" height="17.21" rx="8.6" />
			<rect class="purple" x="357.23" y="124.39" width="19.2" height="17.21" rx="8.6" />
			<rect class="green" x="397.13" y="124.39" width="63.66" height="17.21" rx="8.6" />
			<rect class="purple" x="471.14" y="124.39" width="19.2" height="17.21" rx="8.6" />
			<rect class="pink" x="136.02" y="147.98" width="30.47" height="17.21" rx="8.6" />
			<rect class="orange" x="171.39" y="147.98" width="97.77" height="17.21" rx="8.6" />
			<rect class="blue" x="287.96" y="147.98" width="104.69" height="17.21" rx="8.6" />
			<rect class="green" x="397.13" y="147.98" width="80.8" height="17.21" rx="8.6" />
			<rect class="blue" x="490.34" y="147.98" width="45.61" height="17.21" rx="8.6" />
			<rect class="white" x="175.32" y="171.57" width="178.37" height="17.21" rx="8.6" />
			<rect class="blue" x="192.47" y="194.77" width="61.03" height="17.21" rx="8.6" />
			<rect class="green" x="259.72" y="194.77" width="112.5" height="17.21" rx="8.6" />
			<rect class="green" x="378.3" y="194.77" width="43.82" height="17.21" rx="8.6" />
			<rect class="green" x="428.13" y="194.77" width="80.08" height="17.21" rx="8.6" />
			<rect class="blue" x="552.93" y="194.77" width="46.44" height="17.21" rx="8.6" />
			<rect class="white" x="605.73" y="194.77" width="19.2" height="17.21" rx="8.6" />
		</g>
		<g id="block-3">
			<rect class="pink" x="135.96" y="274.65" width="30.47" height="17.21" rx="8.6" />
			<rect class="orange" x="171.39" y="274.65" width="72.04" height="17.21" rx="8.6" />
			<rect class="pink" x="260.91" y="274.65" width="30.47" height="17.21" rx="8.6" />
			<rect class="white" x="297.6" y="274.65" width="124.07" height="17.21" rx="8.6" />
			<rect class="pink" x="425.48" y="274.65" width="69.11" height="17.21" rx="8.6" />
			<rect class="orange" x="498.92" y="274.65" width="108.02" height="17.21" rx="8.6" />
			<rect class="orange" x="615.15" y="274.65" width="47.91" height="17.21" rx="8.6" />
			<rect class="blue" x="173.95" y="298.46" width="108.03" height="17.21" rx="8.6" />
			<rect class="green" x="287.61" y="298.46" width="24.85" height="17.21" rx="8.6" />
			<rect class="blue" x="318.2" y="298.46" width="46.23" height="17.21" rx="8.6" />
			<rect class="green" x="372.05" y="298.46" width="92.89" height="17.21" rx="8.6" />
			<rect class="green" x="470.46" y="298.46" width="52.54" height="17.21" rx="8.6" />
		</g>
		<g id="block-4">
			<rect class="blue" x="136.15" y="356.83" width="71.26" height="17.21" rx="8.6" />
			<rect class="green" x="212.24" y="356.83" width="63.91" height="17.21" rx="8.6" />
			<rect class="blue" x="283.5" y="356.83" width="56.8" height="17.21" rx="8.6" />
		</g>
		<g id="block-5">
			<rect class="pink" x="135.89" y="397.39" width="59.67" height="17.21" rx="8.6" />
			<rect class="blue" x="173.95" y="420.12" width="97.24" height="17.21" rx="8.6" />
			<rect class="blue" x="176.19" y="442.86" width="75.28" height="17.21" rx="8.6" />
			<rect class="green" x="257.89" y="442.86" width="74.68" height="17.21" rx="8.6" />
			<rect class="blue" x="336.95" y="442.86" width="62.79" height="17.21" rx="8.6" />
		</g>
	</g>
	<rect id="divider" class="white" x="748" y="18.24" width="4" height="463.52" rx="2" />
	<g id="browser">
		<rect
			id="browser-2"
			class="browser-background"
			x="847.13"
			y="29.67"
			width="561.01"
			height="440.66"
			rx="19"
		/>
		<g id="navigation">
			<g class="clip-path-2">
				<rect id="header" class="navigation" x="839.31" y="29.67" width="591.77" height="45.94" />
			</g>
		</g>
		<g id="controls">
			<g id="prev">
				<path
					class="browser-background"
					d="M881.27,51.12a1.06,1.06,0,0,1-1.06,1h0L861,51.73l11.9,8a1.07,1.07,0,0,1-.62,2,1,1,0,0,1-.56-.18l-14.94-10a1.09,1.09,0,0,1-.48-.91,1.06,1.06,0,0,1,.52-.89l15.37-9.31a1.07,1.07,0,0,1,1.47.36,1.06,1.06,0,0,1-.37,1.46L861,49.6l19.21.43A1.06,1.06,0,0,1,881.27,51.12Z"
				/>
			</g>
			<g id="refresh">
				<path
					class="browser-background"
					d="M942.68,65.43A12.63,12.63,0,0,1,930.32,55.3a1.05,1.05,0,0,1,.82-1.25,1.07,1.07,0,0,1,1.25.83,10.5,10.5,0,1,0,8.23-12.35,10.39,10.39,0,0,0-6.56,4.29h2.36a1.06,1.06,0,1,1,0,2.11h-4.94a1.06,1.06,0,0,1-1.06-1V42.94a1.06,1.06,0,0,1,2.12,0v2.38a12.61,12.61,0,1,1,12.61,19.86A12.35,12.35,0,0,1,942.68,65.43Z"
				/>
			</g>
			<g id="next">
				<path
					class="browser-background"
					d="M918.77,50.61a1.05,1.05,0,0,1-.47.9l-15,10a1.07,1.07,0,0,1-1.18-1.78l11.92-7.93-19.21.38h0a1.07,1.07,0,0,1,0-2.13L914,49.63l-12.22-7.45a1.05,1.05,0,0,1-.36-1.46,1.07,1.07,0,0,1,.89-.52,1.1,1.1,0,0,1,.58.16l15.34,9.36A1,1,0,0,1,918.77,50.61Z"
				/>
			</g>
			<rect
				id="search-bar"
				class="browser-background"
				x="972.7"
				y="40.86"
				width="426.18"
				height="23.91"
				rx="10.5"
			/>
		</g>
	</g>
	<g id="logos">
		<g id="svelte">
			<path
				id="inner"
				class="logo"
				d="M1223.51,179.44c-4.72-12.25-11.72-22.05-20.79-29.16s-20.33-11.55-33.37-13.16a57.78,57.78,0,0,0-38.92,8.83c-27.19,17.2-51.2,32.48-73.39,46.71-16,10.28-24.92,25.12-26.44,44.1-1.37,17.2,4,32.66,16.08,45.95a62.69,62.69,0,0,0,42.52,21,60.72,60.72,0,0,0,38.45-9.21c3.64-2.3,7.27-4.63,10.9-7,5.22-3.33,10.6-6.78,15.92-10.13a10.31,10.31,0,0,1,8.83-1.44c4.4,1.31,6.8,3.89,7.53,8.12.69,4-.54,6.7-4,8.91-26.17,16.76-49.71,31.8-72,46a9.78,9.78,0,0,1-8.72,1.19,10.42,10.42,0,0,1-7.51-11.27c.4-4.95-2.08-8.56-6.82-9.9a82.68,82.68,0,0,1-16-6.53,111.62,111.62,0,0,1-13.77-8.82,7.24,7.24,0,0,0-11.77,4.24c-.18.77-.43,1.59-.69,2.46s-.43,1.46-.64,2.2a60.08,60.08,0,0,0,.18,33c8,27.12,33.16,46.07,61.17,46.09h.65a58.88,58.88,0,0,0,32.42-9.19c23.76-15.05,49-31.07,73.89-47.06,20.66-13.28,30.24-37.64,24.39-62.05a61.34,61.34,0,0,0-30.1-40c-10.94-6.21-22.09-9.27-33.12-9.13-11.18.15-22.29,3.61-33,10.27-5.43,3.37-10.88,6.86-16.15,10.24-3.32,2.14-6.64,4.28-10,6.4a11.33,11.33,0,0,1-8.17,1.79,10.49,10.49,0,0,1-8.34-7.71c-.91-4.15.5-7.35,4.29-9.79q3.79-2.45,7.61-4.87l4.3-2.74,15.28-9.77c14.5-9.28,29.5-18.86,44.25-28.26a10.66,10.66,0,0,1,14.17,2.11,10,10,0,0,1,2.27,7.68,7.78,7.78,0,0,0,5.63,9.47,93,93,0,0,1,29.91,15c1.42,1.06,4.07,3,7.64,1.93s4.67-4.21,5.26-5.88l0-.13C1228.41,205.81,1228.43,192.2,1223.51,179.44Zm-10.89,29.65a105.48,105.48,0,0,0-24.21-11.75,23.29,23.29,0,0,0-5.32-14,24.21,24.21,0,0,0-31.77-4.93c-14.76,9.41-29.76,19-44.26,28.27l-15.29,9.77-4.28,2.73-7.66,4.9c-8.43,5.43-12.22,14.38-10.13,23.93a23.88,23.88,0,0,0,19.39,18.11,24.71,24.71,0,0,0,17.41-3.73q5-3.19,10-6.43c5.23-3.35,10.63-6.82,16-10.14,17.32-10.76,34.46-11,52.43-.87a47.65,47.65,0,0,1,23.66,31.47,45.21,45.21,0,0,1-1.59,27A42.91,42.91,0,0,1,1190,324c-24.82,16-50.07,32-73.8,47a45.9,45.9,0,0,1-25.8,7.11h-.07c-22.11,0-42-15-48.33-36.47a45.15,45.15,0,0,1-.87-22.36c2.62,1.72,5.45,3.43,8.46,5a99.65,99.65,0,0,0,15.61,6.65,23.74,23.74,0,0,0,16.94,22,23.18,23.18,0,0,0,19.92-2.67c22.28-14.17,45.84-29.21,72-46,8-5.16,11.58-13.15,10-22.51s-7.63-15.92-16.94-18.67a23.67,23.67,0,0,0-19.79,2.95c-5.35,3.37-10.76,6.83-16,10.18-3.61,2.31-7.23,4.63-10.86,6.93-9,5.74-18.9,8.09-30.16,7.16a49.64,49.64,0,0,1-33.68-16.63c-9.46-10.43-13.72-22.49-12.65-35.86,1.17-14.58,8-26,20.32-33.88,22.16-14.22,46.14-29.48,73.31-46.67a44.73,44.73,0,0,1,30.11-6.85c21.36,2.63,35.52,13.7,43.29,33.84A42.28,42.28,0,0,1,1212.62,209.09Zm10.89-29.65c-4.72-12.25-11.72-22.05-20.79-29.16s-20.33-11.55-33.37-13.16a57.78,57.78,0,0,0-38.92,8.83c-27.19,17.2-51.2,32.48-73.39,46.71-16,10.28-24.92,25.12-26.44,44.1-1.37,17.2,4,32.66,16.08,45.95a62.69,62.69,0,0,0,42.52,21,60.72,60.72,0,0,0,38.45-9.21c3.64-2.3,7.27-4.63,10.9-7,5.22-3.33,10.6-6.78,15.92-10.13a10.31,10.31,0,0,1,8.83-1.44c4.4,1.31,6.8,3.89,7.53,8.12.69,4-.54,6.7-4,8.91-26.17,16.76-49.71,31.8-72,46a9.78,9.78,0,0,1-8.72,1.19,10.42,10.42,0,0,1-7.51-11.27c.4-4.95-2.08-8.56-6.82-9.9a82.68,82.68,0,0,1-16-6.53,111.62,111.62,0,0,1-13.77-8.82,7.24,7.24,0,0,0-11.77,4.24c-.18.77-.43,1.59-.69,2.46s-.43,1.46-.64,2.2a60.08,60.08,0,0,0,.18,33c8,27.12,33.16,46.07,61.17,46.09h.65a58.88,58.88,0,0,0,32.42-9.19c23.76-15.05,49-31.07,73.89-47.06,20.66-13.28,30.24-37.64,24.39-62.05a61.34,61.34,0,0,0-30.1-40c-10.94-6.21-22.09-9.27-33.12-9.13-11.18.15-22.29,3.61-33,10.27-5.43,3.37-10.88,6.86-16.15,10.24-3.32,2.14-6.64,4.28-10,6.4a11.33,11.33,0,0,1-8.17,1.79,10.49,10.49,0,0,1-8.34-7.71c-.91-4.15.5-7.35,4.29-9.79q3.79-2.45,7.61-4.87l4.3-2.74,15.28-9.77c14.5-9.28,29.5-18.86,44.25-28.26a10.66,10.66,0,0,1,14.17,2.11,10,10,0,0,1,2.27,7.68,7.78,7.78,0,0,0,5.63,9.47,93,93,0,0,1,29.91,15c1.42,1.06,4.07,3,7.64,1.93s4.67-4.21,5.26-5.88l0-.13C1228.41,205.81,1228.43,192.2,1223.51,179.44Zm-10.89,29.65a105.48,105.48,0,0,0-24.21-11.75,23.29,23.29,0,0,0-5.32-14,24.21,24.21,0,0,0-31.77-4.93c-14.76,9.41-29.76,19-44.26,28.27l-15.29,9.77-4.28,2.73-7.66,4.9c-8.43,5.43-12.22,14.38-10.13,23.93a23.88,23.88,0,0,0,19.39,18.11,24.71,24.71,0,0,0,17.41-3.73q5-3.19,10-6.43c5.23-3.35,10.63-6.82,16-10.14,17.32-10.76,34.46-11,52.43-.87a47.65,47.65,0,0,1,23.66,31.47,45.21,45.21,0,0,1-1.59,27A42.91,42.91,0,0,1,1190,324c-24.82,16-50.07,32-73.8,47a45.9,45.9,0,0,1-25.8,7.11h-.07c-22.11,0-42-15-48.33-36.47a45.15,45.15,0,0,1-.87-22.36c2.62,1.72,5.45,3.43,8.46,5a99.65,99.65,0,0,0,15.61,6.65,23.74,23.74,0,0,0,16.94,22,23.18,23.18,0,0,0,19.92-2.67c22.28-14.17,45.84-29.21,72-46,8-5.16,11.58-13.15,10-22.51s-7.63-15.92-16.94-18.67a23.67,23.67,0,0,0-19.79,2.95c-5.35,3.37-10.76,6.83-16,10.18-3.61,2.31-7.23,4.63-10.86,6.93-9,5.74-18.9,8.09-30.16,7.16a49.64,49.64,0,0,1-33.68-16.63c-9.46-10.43-13.72-22.49-12.65-35.86,1.17-14.58,8-26,20.32-33.88,22.16-14.22,46.14-29.48,73.31-46.67a44.73,44.73,0,0,1,30.11-6.85c21.36,2.63,35.52,13.7,43.29,33.84A42.28,42.28,0,0,1,1212.62,209.09Zm10.89-29.65c-4.72-12.25-11.72-22.05-20.79-29.16s-20.33-11.55-33.37-13.16a57.78,57.78,0,0,0-38.92,8.83c-27.19,17.2-51.2,32.48-73.39,46.71-16,10.28-24.92,25.12-26.44,44.1-1.37,17.2,4,32.66,16.08,45.95a62.69,62.69,0,0,0,42.52,21,60.72,60.72,0,0,0,38.45-9.21c3.64-2.3,7.27-4.63,10.9-7,5.22-3.33,10.6-6.78,15.92-10.13a10.31,10.31,0,0,1,8.83-1.44c4.4,1.31,6.8,3.89,7.53,8.12.69,4-.54,6.7-4,8.91-26.17,16.76-49.71,31.8-72,46a9.78,9.78,0,0,1-8.72,1.19,10.42,10.42,0,0,1-7.51-11.27c.4-4.95-2.08-8.56-6.82-9.9a82.68,82.68,0,0,1-16-6.53,111.62,111.62,0,0,1-13.77-8.82,7.24,7.24,0,0,0-11.77,4.24c-.18.77-.43,1.59-.69,2.46s-.43,1.46-.64,2.2a60.08,60.08,0,0,0,.18,33c8,27.12,33.16,46.07,61.17,46.09h.65a58.88,58.88,0,0,0,32.42-9.19c23.76-15.05,49-31.07,73.89-47.06,20.66-13.28,30.24-37.64,24.39-62.05a61.34,61.34,0,0,0-30.1-40c-10.94-6.21-22.09-9.27-33.12-9.13-11.18.15-22.29,3.61-33,10.27-5.43,3.37-10.88,6.86-16.15,10.24-3.32,2.14-6.64,4.28-10,6.4a11.33,11.33,0,0,1-8.17,1.79,10.49,10.49,0,0,1-8.34-7.71c-.91-4.15.5-7.35,4.29-9.79q3.79-2.45,7.61-4.87l4.3-2.74,15.28-9.77c14.5-9.28,29.5-18.86,44.25-28.26a10.66,10.66,0,0,1,14.17,2.11,10,10,0,0,1,2.27,7.68,7.78,7.78,0,0,0,5.63,9.47,93,93,0,0,1,29.91,15c1.42,1.06,4.07,3,7.64,1.93s4.67-4.21,5.26-5.88l0-.13C1228.41,205.81,1228.43,192.2,1223.51,179.44Zm-10.89,29.65a105.48,105.48,0,0,0-24.21-11.75,23.29,23.29,0,0,0-5.32-14,24.21,24.21,0,0,0-31.77-4.93c-14.76,9.41-29.76,19-44.26,28.27l-15.29,9.77-4.28,2.73-7.66,4.9c-8.43,5.43-12.22,14.38-10.13,23.93a23.88,23.88,0,0,0,19.39,18.11,24.71,24.71,0,0,0,17.41-3.73q5-3.19,10-6.43c5.23-3.35,10.63-6.82,16-10.14,17.32-10.76,34.46-11,52.43-.87a47.65,47.65,0,0,1,23.66,31.47,45.21,45.21,0,0,1-1.59,27A42.91,42.91,0,0,1,1190,324c-24.82,16-50.07,32-73.8,47a45.9,45.9,0,0,1-25.8,7.11h-.07c-22.11,0-42-15-48.33-36.47a45.15,45.15,0,0,1-.87-22.36c2.62,1.72,5.45,3.43,8.46,5a99.65,99.65,0,0,0,15.61,6.65,23.74,23.74,0,0,0,16.94,22,23.18,23.18,0,0,0,19.92-2.67c22.28-14.17,45.84-29.21,72-46,8-5.16,11.58-13.15,10-22.51s-7.63-15.92-16.94-18.67a23.67,23.67,0,0,0-19.79,2.95c-5.35,3.37-10.76,6.83-16,10.18-3.61,2.31-7.23,4.63-10.86,6.93-9,5.74-18.9,8.09-30.16,7.16a49.64,49.64,0,0,1-33.68-16.63c-9.46-10.43-13.72-22.49-12.65-35.86,1.17-14.58,8-26,20.32-33.88,22.16-14.22,46.14-29.48,73.31-46.67a44.73,44.73,0,0,1,30.11-6.85c21.36,2.63,35.52,13.7,43.29,33.84A42.28,42.28,0,0,1,1212.62,209.09Zm10.89-29.65c-4.72-12.25-11.72-22.05-20.79-29.16s-20.33-11.55-33.37-13.16a57.78,57.78,0,0,0-38.92,8.83c-27.19,17.2-51.2,32.48-73.39,46.71-16,10.28-24.92,25.12-26.44,44.1-1.37,17.2,4,32.66,16.08,45.95a62.69,62.69,0,0,0,42.52,21,60.72,60.72,0,0,0,38.45-9.21c3.64-2.3,7.27-4.63,10.9-7,5.22-3.33,10.6-6.78,15.92-10.13a10.31,10.31,0,0,1,8.83-1.44c4.4,1.31,6.8,3.89,7.53,8.12.69,4-.54,6.7-4,8.91-26.17,16.76-49.71,31.8-72,46a9.78,9.78,0,0,1-8.72,1.19,10.42,10.42,0,0,1-7.51-11.27c.4-4.95-2.08-8.56-6.82-9.9a82.68,82.68,0,0,1-16-6.53,111.62,111.62,0,0,1-13.77-8.82,7.24,7.24,0,0,0-11.77,4.24c-.18.77-.43,1.59-.69,2.46s-.43,1.46-.64,2.2a60.08,60.08,0,0,0,.18,33c8,27.12,33.16,46.07,61.17,46.09h.65a58.88,58.88,0,0,0,32.42-9.19c23.76-15.05,49-31.07,73.89-47.06,20.66-13.28,30.24-37.64,24.39-62.05a61.34,61.34,0,0,0-30.1-40c-10.94-6.21-22.09-9.27-33.12-9.13-11.18.15-22.29,3.61-33,10.27-5.43,3.37-10.88,6.86-16.15,10.24-3.32,2.14-6.64,4.28-10,6.4a11.33,11.33,0,0,1-8.17,1.79,10.49,10.49,0,0,1-8.34-7.71c-.91-4.15.5-7.35,4.29-9.79q3.79-2.45,7.61-4.87l4.3-2.74,15.28-9.77c14.5-9.28,29.5-18.86,44.25-28.26a10.66,10.66,0,0,1,14.17,2.11,10,10,0,0,1,2.27,7.68,7.78,7.78,0,0,0,5.63,9.47,93,93,0,0,1,29.91,15c1.42,1.06,4.07,3,7.64,1.93s4.67-4.21,5.26-5.88l0-.13C1228.41,205.81,1228.43,192.2,1223.51,179.44Zm-10.89,29.65a105.48,105.48,0,0,0-24.21-11.75,23.29,23.29,0,0,0-5.32-14,24.21,24.21,0,0,0-31.77-4.93c-14.76,9.41-29.76,19-44.26,28.27l-15.29,9.77-4.28,2.73-7.66,4.9c-8.43,5.43-12.22,14.38-10.13,23.93a23.88,23.88,0,0,0,19.39,18.11,24.71,24.71,0,0,0,17.41-3.73q5-3.19,10-6.43c5.23-3.35,10.63-6.82,16-10.14,17.32-10.76,34.46-11,52.43-.87a47.65,47.65,0,0,1,23.66,31.47,45.21,45.21,0,0,1-1.59,27A42.91,42.91,0,0,1,1190,324c-24.82,16-50.07,32-73.8,47a45.9,45.9,0,0,1-25.8,7.11h-.07c-22.11,0-42-15-48.33-36.47a45.15,45.15,0,0,1-.87-22.36c2.62,1.72,5.45,3.43,8.46,5a99.65,99.65,0,0,0,15.61,6.65,23.74,23.74,0,0,0,16.94,22,23.18,23.18,0,0,0,19.92-2.67c22.28-14.17,45.84-29.21,72-46,8-5.16,11.58-13.15,10-22.51s-7.63-15.92-16.94-18.67a23.67,23.67,0,0,0-19.79,2.95c-5.35,3.37-10.76,6.83-16,10.18-3.61,2.31-7.23,4.63-10.86,6.93-9,5.74-18.9,8.09-30.16,7.16a49.64,49.64,0,0,1-33.68-16.63c-9.46-10.43-13.72-22.49-12.65-35.86,1.17-14.58,8-26,20.32-33.88,22.16-14.22,46.14-29.48,73.31-46.67a44.73,44.73,0,0,1,30.11-6.85c21.36,2.63,35.52,13.7,43.29,33.84A42.28,42.28,0,0,1,1212.62,209.09Zm10.89-29.65c-4.72-12.25-11.72-22.05-20.79-29.16s-20.33-11.55-33.37-13.16a57.78,57.78,0,0,0-38.92,8.83c-27.19,17.2-51.2,32.48-73.39,46.71-16,10.28-24.92,25.12-26.44,44.1-1.37,17.2,4,32.66,16.08,45.95a62.69,62.69,0,0,0,42.52,21,60.72,60.72,0,0,0,38.45-9.21c3.64-2.3,7.27-4.63,10.9-7,5.22-3.33,10.6-6.78,15.92-10.13a10.31,10.31,0,0,1,8.83-1.44c4.4,1.31,6.8,3.89,7.53,8.12.69,4-.54,6.7-4,8.91-26.17,16.76-49.71,31.8-72,46a9.78,9.78,0,0,1-8.72,1.19,10.42,10.42,0,0,1-7.51-11.27c.4-4.95-2.08-8.56-6.82-9.9a82.68,82.68,0,0,1-16-6.53,111.62,111.62,0,0,1-13.77-8.82,7.24,7.24,0,0,0-11.77,4.24c-.18.77-.43,1.59-.69,2.46s-.43,1.46-.64,2.2a60.08,60.08,0,0,0,.18,33c8,27.12,33.16,46.07,61.17,46.09h.65a58.88,58.88,0,0,0,32.42-9.19c23.76-15.05,49-31.07,73.89-47.06,20.66-13.28,30.24-37.64,24.39-62.05a61.34,61.34,0,0,0-30.1-40c-10.94-6.21-22.09-9.27-33.12-9.13-11.18.15-22.29,3.61-33,10.27-5.43,3.37-10.88,6.86-16.15,10.24-3.32,2.14-6.64,4.28-10,6.4a11.33,11.33,0,0,1-8.17,1.79,10.49,10.49,0,0,1-8.34-7.71c-.91-4.15.5-7.35,4.29-9.79q3.79-2.45,7.61-4.87l4.3-2.74,15.28-9.77c14.5-9.28,29.5-18.86,44.25-28.26a10.66,10.66,0,0,1,14.17,2.11,10,10,0,0,1,2.27,7.68,7.78,7.78,0,0,0,5.63,9.47,93,93,0,0,1,29.91,15c1.42,1.06,4.07,3,7.64,1.93s4.67-4.21,5.26-5.88l0-.13C1228.41,205.81,1228.43,192.2,1223.51,179.44Zm-10.89,29.65a105.48,105.48,0,0,0-24.21-11.75,23.29,23.29,0,0,0-5.32-14,24.21,24.21,0,0,0-31.77-4.93c-14.76,9.41-29.76,19-44.26,28.27l-15.29,9.77-4.28,2.73-7.66,4.9c-8.43,5.43-12.22,14.38-10.13,23.93a23.88,23.88,0,0,0,19.39,18.11,24.71,24.71,0,0,0,17.41-3.73q5-3.19,10-6.43c5.23-3.35,10.63-6.82,16-10.14,17.32-10.76,34.46-11,52.43-.87a47.65,47.65,0,0,1,23.66,31.47,45.21,45.21,0,0,1-1.59,27A42.91,42.91,0,0,1,1190,324c-24.82,16-50.07,32-73.8,47a45.9,45.9,0,0,1-25.8,7.11h-.07c-22.11,0-42-15-48.33-36.47a45.15,45.15,0,0,1-.87-22.36c2.62,1.72,5.45,3.43,8.46,5a99.65,99.65,0,0,0,15.61,6.65,23.74,23.74,0,0,0,16.94,22,23.18,23.18,0,0,0,19.92-2.67c22.28-14.17,45.84-29.21,72-46,8-5.16,11.58-13.15,10-22.51s-7.63-15.92-16.94-18.67a23.67,23.67,0,0,0-19.79,2.95c-5.35,3.37-10.76,6.83-16,10.18-3.61,2.31-7.23,4.63-10.86,6.93-9,5.74-18.9,8.09-30.16,7.16a49.64,49.64,0,0,1-33.68-16.63c-9.46-10.43-13.72-22.49-12.65-35.86,1.17-14.58,8-26,20.32-33.88,22.16-14.22,46.14-29.48,73.31-46.67a44.73,44.73,0,0,1,30.11-6.85c21.36,2.63,35.52,13.7,43.29,33.84A42.28,42.28,0,0,1,1212.62,209.09Zm10.89-29.65c-4.72-12.25-11.72-22.05-20.79-29.16s-20.33-11.55-33.37-13.16a57.78,57.78,0,0,0-38.92,8.83c-27.19,17.2-51.2,32.48-73.39,46.71-16,10.28-24.92,25.12-26.44,44.1-1.37,17.2,4,32.66,16.08,45.95a62.69,62.69,0,0,0,42.52,21,60.72,60.72,0,0,0,38.45-9.21c3.64-2.3,7.27-4.63,10.9-7,5.22-3.33,10.6-6.78,15.92-10.13a10.31,10.31,0,0,1,8.83-1.44c4.4,1.31,6.8,3.89,7.53,8.12.69,4-.54,6.7-4,8.91-26.17,16.76-49.71,31.8-72,46a9.78,9.78,0,0,1-8.72,1.19,10.42,10.42,0,0,1-7.51-11.27c.4-4.95-2.08-8.56-6.82-9.9a82.68,82.68,0,0,1-16-6.53,111.62,111.62,0,0,1-13.77-8.82,7.24,7.24,0,0,0-11.77,4.24c-.18.77-.43,1.59-.69,2.46s-.43,1.46-.64,2.2a60.08,60.08,0,0,0,.18,33c8,27.12,33.16,46.07,61.17,46.09h.65a58.88,58.88,0,0,0,32.42-9.19c23.76-15.05,49-31.07,73.89-47.06,20.66-13.28,30.24-37.64,24.39-62.05a61.34,61.34,0,0,0-30.1-40c-10.94-6.21-22.09-9.27-33.12-9.13-11.18.15-22.29,3.61-33,10.27-5.43,3.37-10.88,6.86-16.15,10.24-3.32,2.14-6.64,4.28-10,6.4a11.33,11.33,0,0,1-8.17,1.79,10.49,10.49,0,0,1-8.34-7.71c-.91-4.15.5-7.35,4.29-9.79q3.79-2.45,7.61-4.87l4.3-2.74,15.28-9.77c14.5-9.28,29.5-18.86,44.25-28.26a10.66,10.66,0,0,1,14.17,2.11,10,10,0,0,1,2.27,7.68,7.78,7.78,0,0,0,5.63,9.47,93,93,0,0,1,29.91,15c1.42,1.06,4.07,3,7.64,1.93s4.67-4.21,5.26-5.88l0-.13C1228.41,205.81,1228.43,192.2,1223.51,179.44Zm-10.89,29.65a105.48,105.48,0,0,0-24.21-11.75,23.29,23.29,0,0,0-5.32-14,24.21,24.21,0,0,0-31.77-4.93c-14.76,9.41-29.76,19-44.26,28.27l-15.29,9.77-4.28,2.73-7.66,4.9c-8.43,5.43-12.22,14.38-10.13,23.93a23.88,23.88,0,0,0,19.39,18.11,24.71,24.71,0,0,0,17.41-3.73q5-3.19,10-6.43c5.23-3.35,10.63-6.82,16-10.14,17.32-10.76,34.46-11,52.43-.87a47.65,47.65,0,0,1,23.66,31.47,45.21,45.21,0,0,1-1.59,27A42.91,42.91,0,0,1,1190,324c-24.82,16-50.07,32-73.8,47a45.9,45.9,0,0,1-25.8,7.11h-.07c-22.11,0-42-15-48.33-36.47a45.15,45.15,0,0,1-.87-22.36c2.62,1.72,5.45,3.43,8.46,5a99.65,99.65,0,0,0,15.61,6.65,23.74,23.74,0,0,0,16.94,22,23.18,23.18,0,0,0,19.92-2.67c22.28-14.17,45.84-29.21,72-46,8-5.16,11.58-13.15,10-22.51s-7.63-15.92-16.94-18.67a23.67,23.67,0,0,0-19.79,2.95c-5.35,3.37-10.76,6.83-16,10.18-3.61,2.31-7.23,4.63-10.86,6.93-9,5.74-18.9,8.09-30.16,7.16a49.64,49.64,0,0,1-33.68-16.63c-9.46-10.43-13.72-22.49-12.65-35.86,1.17-14.58,8-26,20.32-33.88,22.16-14.22,46.14-29.48,73.31-46.67a44.73,44.73,0,0,1,30.11-6.85c21.36,2.63,35.52,13.7,43.29,33.84A42.28,42.28,0,0,1,1212.62,209.09Zm10.89-29.65c-4.72-12.25-11.72-22.05-20.79-29.16s-20.33-11.55-33.37-13.16a57.78,57.78,0,0,0-38.92,8.83c-27.19,17.2-51.2,32.48-73.39,46.71-16,10.28-24.92,25.12-26.44,44.1-1.37,17.2,4,32.66,16.08,45.95a62.69,62.69,0,0,0,42.52,21,60.72,60.72,0,0,0,38.45-9.21c3.64-2.3,7.27-4.63,10.9-7,5.22-3.33,10.6-6.78,15.92-10.13a10.31,10.31,0,0,1,8.83-1.44c4.4,1.31,6.8,3.89,7.53,8.12.69,4-.54,6.7-4,8.91-26.17,16.76-49.71,31.8-72,46a9.78,9.78,0,0,1-8.72,1.19,10.42,10.42,0,0,1-7.51-11.27c.4-4.95-2.08-8.56-6.82-9.9a82.68,82.68,0,0,1-16-6.53,111.62,111.62,0,0,1-13.77-8.82,7.24,7.24,0,0,0-11.77,4.24c-.18.77-.43,1.59-.69,2.46s-.43,1.46-.64,2.2a60.08,60.08,0,0,0,.18,33c8,27.12,33.16,46.07,61.17,46.09h.65a58.88,58.88,0,0,0,32.42-9.19c23.76-15.05,49-31.07,73.89-47.06,20.66-13.28,30.24-37.64,24.39-62.05a61.34,61.34,0,0,0-30.1-40c-10.94-6.21-22.09-9.27-33.12-9.13-11.18.15-22.29,3.61-33,10.27-5.43,3.37-10.88,6.86-16.15,10.24-3.32,2.14-6.64,4.28-10,6.4a11.33,11.33,0,0,1-8.17,1.79,10.49,10.49,0,0,1-8.34-7.71c-.91-4.15.5-7.35,4.29-9.79q3.79-2.45,7.61-4.87l4.3-2.74,15.28-9.77c14.5-9.28,29.5-18.86,44.25-28.26a10.66,10.66,0,0,1,14.17,2.11,10,10,0,0,1,2.27,7.68,7.78,7.78,0,0,0,5.63,9.47,93,93,0,0,1,29.91,15c1.42,1.06,4.07,3,7.64,1.93s4.67-4.21,5.26-5.88l0-.13C1228.41,205.81,1228.43,192.2,1223.51,179.44Zm-10.89,29.65a105.48,105.48,0,0,0-24.21-11.75,23.29,23.29,0,0,0-5.32-14,24.21,24.21,0,0,0-31.77-4.93c-14.76,9.41-29.76,19-44.26,28.27l-15.29,9.77-4.28,2.73-7.66,4.9c-8.43,5.43-12.22,14.38-10.13,23.93a23.88,23.88,0,0,0,19.39,18.11,24.71,24.71,0,0,0,17.41-3.73q5-3.19,10-6.43c5.23-3.35,10.63-6.82,16-10.14,17.32-10.76,34.46-11,52.43-.87a47.65,47.65,0,0,1,23.66,31.47,45.21,45.21,0,0,1-1.59,27A42.91,42.91,0,0,1,1190,324c-24.82,16-50.07,32-73.8,47a45.9,45.9,0,0,1-25.8,7.11h-.07c-22.11,0-42-15-48.33-36.47a45.15,45.15,0,0,1-.87-22.36c2.62,1.72,5.45,3.43,8.46,5a99.65,99.65,0,0,0,15.61,6.65,23.74,23.74,0,0,0,16.94,22,23.18,23.18,0,0,0,19.92-2.67c22.28-14.17,45.84-29.21,72-46,8-5.16,11.58-13.15,10-22.51s-7.63-15.92-16.94-18.67a23.67,23.67,0,0,0-19.79,2.95c-5.35,3.37-10.76,6.83-16,10.18-3.61,2.31-7.23,4.63-10.86,6.93-9,5.74-18.9,8.09-30.16,7.16a49.64,49.64,0,0,1-33.68-16.63c-9.46-10.43-13.72-22.49-12.65-35.86,1.17-14.58,8-26,20.32-33.88,22.16-14.22,46.14-29.48,73.31-46.67a44.73,44.73,0,0,1,30.11-6.85c21.36,2.63,35.52,13.7,43.29,33.84A42.28,42.28,0,0,1,1212.62,209.09Zm10.89-29.65c-4.72-12.25-11.72-22.05-20.79-29.16s-20.33-11.55-33.37-13.16a57.78,57.78,0,0,0-38.92,8.83c-27.19,17.2-51.2,32.48-73.39,46.71-16,10.28-24.92,25.12-26.44,44.1-1.37,17.2,4,32.66,16.08,45.95a62.69,62.69,0,0,0,42.52,21,60.72,60.72,0,0,0,38.45-9.21c3.64-2.3,7.27-4.63,10.9-7,5.22-3.33,10.6-6.78,15.92-10.13a10.31,10.31,0,0,1,8.83-1.44c4.4,1.31,6.8,3.89,7.53,8.12.69,4-.54,6.7-4,8.91-26.17,16.76-49.71,31.8-72,46a9.78,9.78,0,0,1-8.72,1.19,10.42,10.42,0,0,1-7.51-11.27c.4-4.95-2.08-8.56-6.82-9.9a82.68,82.68,0,0,1-16-6.53,111.62,111.62,0,0,1-13.77-8.82,7.24,7.24,0,0,0-11.77,4.24c-.18.77-.43,1.59-.69,2.46s-.43,1.46-.64,2.2a60.08,60.08,0,0,0,.18,33c8,27.12,33.16,46.07,61.17,46.09h.65a58.88,58.88,0,0,0,32.42-9.19c23.76-15.05,49-31.07,73.89-47.06,20.66-13.28,30.24-37.64,24.39-62.05a61.34,61.34,0,0,0-30.1-40c-10.94-6.21-22.09-9.27-33.12-9.13-11.18.15-22.29,3.61-33,10.27-5.43,3.37-10.88,6.86-16.15,10.24-3.32,2.14-6.64,4.28-10,6.4a11.33,11.33,0,0,1-8.17,1.79,10.49,10.49,0,0,1-8.34-7.71c-.91-4.15.5-7.35,4.29-9.79q3.79-2.45,7.61-4.87l4.3-2.74,15.28-9.77c14.5-9.28,29.5-18.86,44.25-28.26a10.66,10.66,0,0,1,14.17,2.11,10,10,0,0,1,2.27,7.68,7.78,7.78,0,0,0,5.63,9.47,93,93,0,0,1,29.91,15c1.42,1.06,4.07,3,7.64,1.93s4.67-4.21,5.26-5.88l0-.13C1228.41,205.81,1228.43,192.2,1223.51,179.44Zm-10.89,29.65a105.48,105.48,0,0,0-24.21-11.75,23.29,23.29,0,0,0-5.32-14,24.21,24.21,0,0,0-31.77-4.93c-14.76,9.41-29.76,19-44.26,28.27l-15.29,9.77-4.28,2.73-7.66,4.9c-8.43,5.43-12.22,14.38-10.13,23.93a23.88,23.88,0,0,0,19.39,18.11,24.71,24.71,0,0,0,17.41-3.73q5-3.19,10-6.43c5.23-3.35,10.63-6.82,16-10.14,17.32-10.76,34.46-11,52.43-.87a47.65,47.65,0,0,1,23.66,31.47,45.21,45.21,0,0,1-1.59,27A42.91,42.91,0,0,1,1190,324c-24.82,16-50.07,32-73.8,47a45.9,45.9,0,0,1-25.8,7.11h-.07c-22.11,0-42-15-48.33-36.47a45.15,45.15,0,0,1-.87-22.36c2.62,1.72,5.45,3.43,8.46,5a99.65,99.65,0,0,0,15.61,6.65,23.74,23.74,0,0,0,16.94,22,23.18,23.18,0,0,0,19.92-2.67c22.28-14.17,45.84-29.21,72-46,8-5.16,11.58-13.15,10-22.51s-7.63-15.92-16.94-18.67a23.67,23.67,0,0,0-19.79,2.95c-5.35,3.37-10.76,6.83-16,10.18-3.61,2.31-7.23,4.63-10.86,6.93-9,5.74-18.9,8.09-30.16,7.16a49.64,49.64,0,0,1-33.68-16.63c-9.46-10.43-13.72-22.49-12.65-35.86,1.17-14.58,8-26,20.32-33.88,22.16-14.22,46.14-29.48,73.31-46.67a44.73,44.73,0,0,1,30.11-6.85c21.36,2.63,35.52,13.7,43.29,33.84A42.28,42.28,0,0,1,1212.62,209.09Zm10.89-29.65c-4.72-12.25-11.72-22.05-20.79-29.16s-20.33-11.55-33.37-13.16a57.78,57.78,0,0,0-38.92,8.83c-27.19,17.2-51.2,32.48-73.39,46.71-16,10.28-24.92,25.12-26.44,44.1-1.37,17.2,4,32.66,16.08,45.95a62.69,62.69,0,0,0,42.52,21,60.72,60.72,0,0,0,38.45-9.21c3.64-2.3,7.27-4.63,10.9-7,5.22-3.33,10.6-6.78,15.92-10.13a10.31,10.31,0,0,1,8.83-1.44c4.4,1.31,6.8,3.89,7.53,8.12.69,4-.54,6.7-4,8.91-26.17,16.76-49.71,31.8-72,46a9.78,9.78,0,0,1-8.72,1.19,10.42,10.42,0,0,1-7.51-11.27c.4-4.95-2.08-8.56-6.82-9.9a82.68,82.68,0,0,1-16-6.53,111.62,111.62,0,0,1-13.77-8.82,7.24,7.24,0,0,0-11.77,4.24c-.18.77-.43,1.59-.69,2.46s-.43,1.46-.64,2.2a60.08,60.08,0,0,0,.18,33c8,27.12,33.16,46.07,61.17,46.09h.65a58.88,58.88,0,0,0,32.42-9.19c23.76-15.05,49-31.07,73.89-47.06,20.66-13.28,30.24-37.64,24.39-62.05a61.34,61.34,0,0,0-30.1-40c-10.94-6.21-22.09-9.27-33.12-9.13-11.18.15-22.29,3.61-33,10.27-5.43,3.37-10.88,6.86-16.15,10.24-3.32,2.14-6.64,4.28-10,6.4a11.33,11.33,0,0,1-8.17,1.79,10.49,10.49,0,0,1-8.34-7.71c-.91-4.15.5-7.35,4.29-9.79q3.79-2.45,7.61-4.87l4.3-2.74,15.28-9.77c14.5-9.28,29.5-18.86,44.25-28.26a10.66,10.66,0,0,1,14.17,2.11,10,10,0,0,1,2.27,7.68,7.78,7.78,0,0,0,5.63,9.47,93,93,0,0,1,29.91,15c1.42,1.06,4.07,3,7.64,1.93s4.67-4.21,5.26-5.88l0-.13C1228.41,205.81,1228.43,192.2,1223.51,179.44Zm-10.89,29.65a105.48,105.48,0,0,0-24.21-11.75,23.29,23.29,0,0,0-5.32-14,24.21,24.21,0,0,0-31.77-4.93c-14.76,9.41-29.76,19-44.26,28.27l-15.29,9.77-4.28,2.73-7.66,4.9c-8.43,5.43-12.22,14.38-10.13,23.93a23.88,23.88,0,0,0,19.39,18.11,24.71,24.71,0,0,0,17.41-3.73q5-3.19,10-6.43c5.23-3.35,10.63-6.82,16-10.14,17.32-10.76,34.46-11,52.43-.87a47.65,47.65,0,0,1,23.66,31.47,45.21,45.21,0,0,1-1.59,27A42.91,42.91,0,0,1,1190,324c-24.82,16-50.07,32-73.8,47a45.9,45.9,0,0,1-25.8,7.11h-.07c-22.11,0-42-15-48.33-36.47a45.15,45.15,0,0,1-.87-22.36c2.62,1.72,5.45,3.43,8.46,5a99.65,99.65,0,0,0,15.61,6.65,23.74,23.74,0,0,0,16.94,22,23.18,23.18,0,0,0,19.92-2.67c22.28-14.17,45.84-29.21,72-46,8-5.16,11.58-13.15,10-22.51s-7.63-15.92-16.94-18.67a23.67,23.67,0,0,0-19.79,2.95c-5.35,3.37-10.76,6.83-16,10.18-3.61,2.31-7.23,4.63-10.86,6.93-9,5.74-18.9,8.09-30.16,7.16a49.64,49.64,0,0,1-33.68-16.63c-9.46-10.43-13.72-22.49-12.65-35.86,1.17-14.58,8-26,20.32-33.88,22.16-14.22,46.14-29.48,73.31-46.67a44.73,44.73,0,0,1,30.11-6.85c21.36,2.63,35.52,13.7,43.29,33.84A42.28,42.28,0,0,1,1212.62,209.09Zm10.89-29.65c-4.72-12.25-11.72-22.05-20.79-29.16s-20.33-11.55-33.37-13.16a57.78,57.78,0,0,0-38.92,8.83c-27.19,17.2-51.2,32.48-73.39,46.71-16,10.28-24.92,25.12-26.44,44.1-1.37,17.2,4,32.66,16.08,45.95a62.69,62.69,0,0,0,42.52,21,60.72,60.72,0,0,0,38.45-9.21c3.64-2.3,7.27-4.63,10.9-7,5.22-3.33,10.6-6.78,15.92-10.13a10.31,10.31,0,0,1,8.83-1.44c4.4,1.31,6.8,3.89,7.53,8.12.69,4-.54,6.7-4,8.91-26.17,16.76-49.71,31.8-72,46a9.78,9.78,0,0,1-8.72,1.19,10.42,10.42,0,0,1-7.51-11.27c.4-4.95-2.08-8.56-6.82-9.9a82.68,82.68,0,0,1-16-6.53,111.62,111.62,0,0,1-13.77-8.82,7.24,7.24,0,0,0-11.77,4.24c-.18.77-.43,1.59-.69,2.46s-.43,1.46-.64,2.2a60.08,60.08,0,0,0,.18,33c8,27.12,33.16,46.07,61.17,46.09h.65a58.88,58.88,0,0,0,32.42-9.19c23.76-15.05,49-31.07,73.89-47.06,20.66-13.28,30.24-37.64,24.39-62.05a61.34,61.34,0,0,0-30.1-40c-10.94-6.21-22.09-9.27-33.12-9.13-11.18.15-22.29,3.61-33,10.27-5.43,3.37-10.88,6.86-16.15,10.24-3.32,2.14-6.64,4.28-10,6.4a11.33,11.33,0,0,1-8.17,1.79,10.49,10.49,0,0,1-8.34-7.71c-.91-4.15.5-7.35,4.29-9.79q3.79-2.45,7.61-4.87l4.3-2.74,15.28-9.77c14.5-9.28,29.5-18.86,44.25-28.26a10.66,10.66,0,0,1,14.17,2.11,10,10,0,0,1,2.27,7.68,7.78,7.78,0,0,0,5.63,9.47,93,93,0,0,1,29.91,15c1.42,1.06,4.07,3,7.64,1.93s4.67-4.21,5.26-5.88l0-.13C1228.41,205.81,1228.43,192.2,1223.51,179.44Zm-10.89,29.65a105.48,105.48,0,0,0-24.21-11.75,23.29,23.29,0,0,0-5.32-14,24.21,24.21,0,0,0-31.77-4.93c-14.76,9.41-29.76,19-44.26,28.27l-15.29,9.77-4.28,2.73-7.66,4.9c-8.43,5.43-12.22,14.38-10.13,23.93a23.88,23.88,0,0,0,19.39,18.11,24.71,24.71,0,0,0,17.41-3.73q5-3.19,10-6.43c5.23-3.35,10.63-6.82,16-10.14,17.32-10.76,34.46-11,52.43-.87a47.65,47.65,0,0,1,23.66,31.47,45.21,45.21,0,0,1-1.59,27A42.91,42.91,0,0,1,1190,324c-24.82,16-50.07,32-73.8,47a45.9,45.9,0,0,1-25.8,7.11h-.07c-22.11,0-42-15-48.33-36.47a45.15,45.15,0,0,1-.87-22.36c2.62,1.72,5.45,3.43,8.46,5a99.65,99.65,0,0,0,15.61,6.65,23.74,23.74,0,0,0,16.94,22,23.18,23.18,0,0,0,19.92-2.67c22.28-14.17,45.84-29.21,72-46,8-5.16,11.58-13.15,10-22.51s-7.63-15.92-16.94-18.67a23.67,23.67,0,0,0-19.79,2.95c-5.35,3.37-10.76,6.83-16,10.18-3.61,2.31-7.23,4.63-10.86,6.93-9,5.74-18.9,8.09-30.16,7.16a49.64,49.64,0,0,1-33.68-16.63c-9.46-10.43-13.72-22.49-12.65-35.86,1.17-14.58,8-26,20.32-33.88,22.16-14.22,46.14-29.48,73.31-46.67a44.73,44.73,0,0,1,30.11-6.85c21.36,2.63,35.52,13.7,43.29,33.84A42.28,42.28,0,0,1,1212.62,209.09Zm10.89-29.65c-4.72-12.25-11.72-22.05-20.79-29.16s-20.33-11.55-33.37-13.16a57.78,57.78,0,0,0-38.92,8.83c-27.19,17.2-51.2,32.48-73.39,46.71-16,10.28-24.92,25.12-26.44,44.1-1.37,17.2,4,32.66,16.08,45.95a62.69,62.69,0,0,0,42.52,21,60.72,60.72,0,0,0,38.45-9.21c3.64-2.3,7.27-4.63,10.9-7,5.22-3.33,10.6-6.78,15.92-10.13a10.31,10.31,0,0,1,8.83-1.44c4.4,1.31,6.8,3.89,7.53,8.12.69,4-.54,6.7-4,8.91-26.17,16.76-49.71,31.8-72,46a9.78,9.78,0,0,1-8.72,1.19,10.42,10.42,0,0,1-7.51-11.27c.4-4.95-2.08-8.56-6.82-9.9a82.68,82.68,0,0,1-16-6.53,111.62,111.62,0,0,1-13.77-8.82,7.24,7.24,0,0,0-11.77,4.24c-.18.77-.43,1.59-.69,2.46s-.43,1.46-.64,2.2a60.08,60.08,0,0,0,.18,33c8,27.12,33.16,46.07,61.17,46.09h.65a58.88,58.88,0,0,0,32.42-9.19c23.76-15.05,49-31.07,73.89-47.06,20.66-13.28,30.24-37.64,24.39-62.05a61.34,61.34,0,0,0-30.1-40c-10.94-6.21-22.09-9.27-33.12-9.13-11.18.15-22.29,3.61-33,10.27-5.43,3.37-10.88,6.86-16.15,10.24-3.32,2.14-6.64,4.28-10,6.4a11.33,11.33,0,0,1-8.17,1.79,10.49,10.49,0,0,1-8.34-7.71c-.91-4.15.5-7.35,4.29-9.79q3.79-2.45,7.61-4.87l4.3-2.74,15.28-9.77c14.5-9.28,29.5-18.86,44.25-28.26a10.66,10.66,0,0,1,14.17,2.11,10,10,0,0,1,2.27,7.68,7.78,7.78,0,0,0,5.63,9.47,93,93,0,0,1,29.91,15c1.42,1.06,4.07,3,7.64,1.93s4.67-4.21,5.26-5.88l0-.13C1228.41,205.81,1228.43,192.2,1223.51,179.44Zm-10.89,29.65a105.48,105.48,0,0,0-24.21-11.75,23.29,23.29,0,0,0-5.32-14,24.21,24.21,0,0,0-31.77-4.93c-14.76,9.41-29.76,19-44.26,28.27l-15.29,9.77-4.28,2.73-7.66,4.9c-8.43,5.43-12.22,14.38-10.13,23.93a23.88,23.88,0,0,0,19.39,18.11,24.71,24.71,0,0,0,17.41-3.73q5-3.19,10-6.43c5.23-3.35,10.63-6.82,16-10.14,17.32-10.76,34.46-11,52.43-.87a47.65,47.65,0,0,1,23.66,31.47,45.21,45.21,0,0,1-1.59,27A42.91,42.91,0,0,1,1190,324c-24.82,16-50.07,32-73.8,47a45.9,45.9,0,0,1-25.8,7.11h-.07c-22.11,0-42-15-48.33-36.47a45.15,45.15,0,0,1-.87-22.36c2.62,1.72,5.45,3.43,8.46,5a99.65,99.65,0,0,0,15.61,6.65,23.74,23.74,0,0,0,16.94,22,23.18,23.18,0,0,0,19.92-2.67c22.28-14.17,45.84-29.21,72-46,8-5.16,11.58-13.15,10-22.51s-7.63-15.92-16.94-18.67a23.67,23.67,0,0,0-19.79,2.95c-5.35,3.37-10.76,6.83-16,10.18-3.61,2.31-7.23,4.63-10.86,6.93-9,5.74-18.9,8.09-30.16,7.16a49.64,49.64,0,0,1-33.68-16.63c-9.46-10.43-13.72-22.49-12.65-35.86,1.17-14.58,8-26,20.32-33.88,22.16-14.22,46.14-29.48,73.31-46.67a44.73,44.73,0,0,1,30.11-6.85c21.36,2.63,35.52,13.7,43.29,33.84A42.28,42.28,0,0,1,1212.62,209.09Zm10.89-29.65c-4.72-12.25-11.72-22.05-20.79-29.16s-20.33-11.55-33.37-13.16a57.78,57.78,0,0,0-38.92,8.83c-27.19,17.2-51.2,32.48-73.39,46.71-16,10.28-24.92,25.12-26.44,44.1-1.37,17.2,4,32.66,16.08,45.95a62.69,62.69,0,0,0,42.52,21,60.72,60.72,0,0,0,38.45-9.21c3.64-2.3,7.27-4.63,10.9-7,5.22-3.33,10.6-6.78,15.92-10.13a10.31,10.31,0,0,1,8.83-1.44c4.4,1.31,6.8,3.89,7.53,8.12.69,4-.54,6.7-4,8.91-26.17,16.76-49.71,31.8-72,46a9.78,9.78,0,0,1-8.72,1.19,10.42,10.42,0,0,1-7.51-11.27c.4-4.95-2.08-8.56-6.82-9.9a82.68,82.68,0,0,1-16-6.53,111.62,111.62,0,0,1-13.77-8.82,7.24,7.24,0,0,0-11.77,4.24c-.18.77-.43,1.59-.69,2.46s-.43,1.46-.64,2.2a60.08,60.08,0,0,0,.18,33c8,27.12,33.16,46.07,61.17,46.09h.65a58.88,58.88,0,0,0,32.42-9.19c23.76-15.05,49-31.07,73.89-47.06,20.66-13.28,30.24-37.64,24.39-62.05a61.34,61.34,0,0,0-30.1-40c-10.94-6.21-22.09-9.27-33.12-9.13-11.18.15-22.29,3.61-33,10.27-5.43,3.37-10.88,6.86-16.15,10.24-3.32,2.14-6.64,4.28-10,6.4a11.33,11.33,0,0,1-8.17,1.79,10.49,10.49,0,0,1-8.34-7.71c-.91-4.15.5-7.35,4.29-9.79q3.79-2.45,7.61-4.87l4.3-2.74,15.28-9.77c14.5-9.28,29.5-18.86,44.25-28.26a10.66,10.66,0,0,1,14.17,2.11,10,10,0,0,1,2.27,7.68,7.78,7.78,0,0,0,5.63,9.47,93,93,0,0,1,29.91,15c1.42,1.06,4.07,3,7.64,1.93s4.67-4.21,5.26-5.88l0-.13C1228.41,205.81,1228.43,192.2,1223.51,179.44Zm-10.89,29.65a105.48,105.48,0,0,0-24.21-11.75,23.29,23.29,0,0,0-5.32-14,24.21,24.21,0,0,0-31.77-4.93c-14.76,9.41-29.76,19-44.26,28.27l-15.29,9.77-4.28,2.73-7.66,4.9c-8.43,5.43-12.22,14.38-10.13,23.93a23.88,23.88,0,0,0,19.39,18.11,24.71,24.71,0,0,0,17.41-3.73q5-3.19,10-6.43c5.23-3.35,10.63-6.82,16-10.14,17.32-10.76,34.46-11,52.43-.87a47.65,47.65,0,0,1,23.66,31.47,45.21,45.21,0,0,1-1.59,27A42.91,42.91,0,0,1,1190,324c-24.82,16-50.07,32-73.8,47a45.9,45.9,0,0,1-25.8,7.11h-.07c-22.11,0-42-15-48.33-36.47a45.15,45.15,0,0,1-.87-22.36c2.62,1.72,5.45,3.43,8.46,5a99.65,99.65,0,0,0,15.61,6.65,23.74,23.74,0,0,0,16.94,22,23.18,23.18,0,0,0,19.92-2.67c22.28-14.17,45.84-29.21,72-46,8-5.16,11.58-13.15,10-22.51s-7.63-15.92-16.94-18.67a23.67,23.67,0,0,0-19.79,2.95c-5.35,3.37-10.76,6.83-16,10.18-3.61,2.31-7.23,4.63-10.86,6.93-9,5.74-18.9,8.09-30.16,7.16a49.64,49.64,0,0,1-33.68-16.63c-9.46-10.43-13.72-22.49-12.65-35.86,1.17-14.58,8-26,20.32-33.88,22.16-14.22,46.14-29.48,73.31-46.67a44.73,44.73,0,0,1,30.11-6.85c21.36,2.63,35.52,13.7,43.29,33.84A42.28,42.28,0,0,1,1212.62,209.09Zm10.89-29.65c-4.72-12.25-11.72-22.05-20.79-29.16s-20.33-11.55-33.37-13.16a57.78,57.78,0,0,0-38.92,8.83c-27.19,17.2-51.2,32.48-73.39,46.71-16,10.28-24.92,25.12-26.44,44.1-1.37,17.2,4,32.66,16.08,45.95a62.69,62.69,0,0,0,42.52,21,60.72,60.72,0,0,0,38.45-9.21c3.64-2.3,7.27-4.63,10.9-7,5.22-3.33,10.6-6.78,15.92-10.13a10.31,10.31,0,0,1,8.83-1.44c4.4,1.31,6.8,3.89,7.53,8.12.69,4-.54,6.7-4,8.91-26.17,16.76-49.71,31.8-72,46a9.78,9.78,0,0,1-8.72,1.19,10.42,10.42,0,0,1-7.51-11.27c.4-4.95-2.08-8.56-6.82-9.9a82.68,82.68,0,0,1-16-6.53,111.62,111.62,0,0,1-13.77-8.82,7.24,7.24,0,0,0-11.77,4.24c-.18.77-.43,1.59-.69,2.46s-.43,1.46-.64,2.2a60.08,60.08,0,0,0,.18,33c8,27.12,33.16,46.07,61.17,46.09h.65a58.88,58.88,0,0,0,32.42-9.19c23.76-15.05,49-31.07,73.89-47.06,20.66-13.28,30.24-37.64,24.39-62.05a61.34,61.34,0,0,0-30.1-40c-10.94-6.21-22.09-9.27-33.12-9.13-11.18.15-22.29,3.61-33,10.27-5.43,3.37-10.88,6.86-16.15,10.24-3.32,2.14-6.64,4.28-10,6.4a11.33,11.33,0,0,1-8.17,1.79,10.49,10.49,0,0,1-8.34-7.71c-.91-4.15.5-7.35,4.29-9.79q3.79-2.45,7.61-4.87l4.3-2.74,15.28-9.77c14.5-9.28,29.5-18.86,44.25-28.26a10.66,10.66,0,0,1,14.17,2.11,10,10,0,0,1,2.27,7.68,7.78,7.78,0,0,0,5.63,9.47,93,93,0,0,1,29.91,15c1.42,1.06,4.07,3,7.64,1.93s4.67-4.21,5.26-5.88l0-.13C1228.41,205.81,1228.43,192.2,1223.51,179.44Zm-10.89,29.65a105.48,105.48,0,0,0-24.21-11.75,23.29,23.29,0,0,0-5.32-14,24.21,24.21,0,0,0-31.77-4.93c-14.76,9.41-29.76,19-44.26,28.27l-15.29,9.77-4.28,2.73-7.66,4.9c-8.43,5.43-12.22,14.38-10.13,23.93a23.88,23.88,0,0,0,19.39,18.11,24.71,24.71,0,0,0,17.41-3.73q5-3.19,10-6.43c5.23-3.35,10.63-6.82,16-10.14,17.32-10.76,34.46-11,52.43-.87a47.65,47.65,0,0,1,23.66,31.47,45.21,45.21,0,0,1-1.59,27A42.91,42.91,0,0,1,1190,324c-24.82,16-50.07,32-73.8,47a45.9,45.9,0,0,1-25.8,7.11h-.07c-22.11,0-42-15-48.33-36.47a45.15,45.15,0,0,1-.87-22.36c2.62,1.72,5.45,3.43,8.46,5a99.65,99.65,0,0,0,15.61,6.65,23.74,23.74,0,0,0,16.94,22,23.18,23.18,0,0,0,19.92-2.67c22.28-14.17,45.84-29.21,72-46,8-5.16,11.58-13.15,10-22.51s-7.63-15.92-16.94-18.67a23.67,23.67,0,0,0-19.79,2.95c-5.35,3.37-10.76,6.83-16,10.18-3.61,2.31-7.23,4.63-10.86,6.93-9,5.74-18.9,8.09-30.16,7.16a49.64,49.64,0,0,1-33.68-16.63c-9.46-10.43-13.72-22.49-12.65-35.86,1.17-14.58,8-26,20.32-33.88,22.16-14.22,46.14-29.48,73.31-46.67a44.73,44.73,0,0,1,30.11-6.85c21.36,2.63,35.52,13.7,43.29,33.84A42.28,42.28,0,0,1,1212.62,209.09Zm10.89-29.65c-4.72-12.25-11.72-22.05-20.79-29.16s-20.33-11.55-33.37-13.16a57.78,57.78,0,0,0-38.92,8.83c-27.19,17.2-51.2,32.48-73.39,46.71-16,10.28-24.92,25.12-26.44,44.1-1.37,17.2,4,32.66,16.08,45.95a62.69,62.69,0,0,0,42.52,21,60.72,60.72,0,0,0,38.45-9.21c3.64-2.3,7.27-4.63,10.9-7,5.22-3.33,10.6-6.78,15.92-10.13a10.31,10.31,0,0,1,8.83-1.44c4.4,1.31,6.8,3.89,7.53,8.12.69,4-.54,6.7-4,8.91-26.17,16.76-49.71,31.8-72,46a9.78,9.78,0,0,1-8.72,1.19,10.42,10.42,0,0,1-7.51-11.27c.4-4.95-2.08-8.56-6.82-9.9a82.68,82.68,0,0,1-16-6.53,111.62,111.62,0,0,1-13.77-8.82,7.24,7.24,0,0,0-11.77,4.24c-.18.77-.43,1.59-.69,2.46s-.43,1.46-.64,2.2a60.08,60.08,0,0,0,.18,33c8,27.12,33.16,46.07,61.17,46.09h.65a58.88,58.88,0,0,0,32.42-9.19c23.76-15.05,49-31.07,73.89-47.06,20.66-13.28,30.24-37.64,24.39-62.05a61.34,61.34,0,0,0-30.1-40c-10.94-6.21-22.09-9.27-33.12-9.13-11.18.15-22.29,3.61-33,10.27-5.43,3.37-10.88,6.86-16.15,10.24-3.32,2.14-6.64,4.28-10,6.4a11.33,11.33,0,0,1-8.17,1.79,10.49,10.49,0,0,1-8.34-7.71c-.91-4.15.5-7.35,4.29-9.79q3.79-2.45,7.61-4.87l4.3-2.74,15.28-9.77c14.5-9.28,29.5-18.86,44.25-28.26a10.66,10.66,0,0,1,14.17,2.11,10,10,0,0,1,2.27,7.68,7.78,7.78,0,0,0,5.63,9.47,93,93,0,0,1,29.91,15c1.42,1.06,4.07,3,7.64,1.93s4.67-4.21,5.26-5.88l0-.13C1228.41,205.81,1228.43,192.2,1223.51,179.44Zm-10.89,29.65a105.48,105.48,0,0,0-24.21-11.75,23.29,23.29,0,0,0-5.32-14,24.21,24.21,0,0,0-31.77-4.93c-14.76,9.41-29.76,19-44.26,28.27l-15.29,9.77-4.28,2.73-7.66,4.9c-8.43,5.43-12.22,14.38-10.13,23.93a23.88,23.88,0,0,0,19.39,18.11,24.71,24.71,0,0,0,17.41-3.73q5-3.19,10-6.43c5.23-3.35,10.63-6.82,16-10.14,17.32-10.76,34.46-11,52.43-.87a47.65,47.65,0,0,1,23.66,31.47,45.21,45.21,0,0,1-1.59,27A42.91,42.91,0,0,1,1190,324c-24.82,16-50.07,32-73.8,47a45.9,45.9,0,0,1-25.8,7.11h-.07c-22.11,0-42-15-48.33-36.47a45.15,45.15,0,0,1-.87-22.36c2.62,1.72,5.45,3.43,8.46,5a99.65,99.65,0,0,0,15.61,6.65,23.74,23.74,0,0,0,16.94,22,23.18,23.18,0,0,0,19.92-2.67c22.28-14.17,45.84-29.21,72-46,8-5.16,11.58-13.15,10-22.51s-7.63-15.92-16.94-18.67a23.67,23.67,0,0,0-19.79,2.95c-5.35,3.37-10.76,6.83-16,10.18-3.61,2.31-7.23,4.63-10.86,6.93-9,5.74-18.9,8.09-30.16,7.16a49.64,49.64,0,0,1-33.68-16.63c-9.46-10.43-13.72-22.49-12.65-35.86,1.17-14.58,8-26,20.32-33.88,22.16-14.22,46.14-29.48,73.31-46.67a44.73,44.73,0,0,1,30.11-6.85c21.36,2.63,35.52,13.7,43.29,33.84A42.28,42.28,0,0,1,1212.62,209.09Zm10.89-29.65c-4.72-12.25-11.72-22.05-20.79-29.16s-20.33-11.55-33.37-13.16a57.78,57.78,0,0,0-38.92,8.83c-27.19,17.2-51.2,32.48-73.39,46.71-16,10.28-24.92,25.12-26.44,44.1-1.37,17.2,4,32.66,16.08,45.95a62.69,62.69,0,0,0,42.52,21,60.72,60.72,0,0,0,38.45-9.21c3.64-2.3,7.27-4.63,10.9-7,5.22-3.33,10.6-6.78,15.92-10.13a10.31,10.31,0,0,1,8.83-1.44c4.4,1.31,6.8,3.89,7.53,8.12.69,4-.54,6.7-4,8.91-26.17,16.76-49.71,31.8-72,46a9.78,9.78,0,0,1-8.72,1.19,10.42,10.42,0,0,1-7.51-11.27c.4-4.95-2.08-8.56-6.82-9.9a82.68,82.68,0,0,1-16-6.53,111.62,111.62,0,0,1-13.77-8.82,7.24,7.24,0,0,0-11.77,4.24c-.18.77-.43,1.59-.69,2.46s-.43,1.46-.64,2.2a60.08,60.08,0,0,0,.18,33c8,27.12,33.16,46.07,61.17,46.09h.65a58.88,58.88,0,0,0,32.42-9.19c23.76-15.05,49-31.07,73.89-47.06,20.66-13.28,30.24-37.64,24.39-62.05a61.34,61.34,0,0,0-30.1-40c-10.94-6.21-22.09-9.27-33.12-9.13-11.18.15-22.29,3.61-33,10.27-5.43,3.37-10.88,6.86-16.15,10.24-3.32,2.14-6.64,4.28-10,6.4a11.33,11.33,0,0,1-8.17,1.79,10.49,10.49,0,0,1-8.34-7.71c-.91-4.15.5-7.35,4.29-9.79q3.79-2.45,7.61-4.87l4.3-2.74,15.28-9.77c14.5-9.28,29.5-18.86,44.25-28.26a10.66,10.66,0,0,1,14.17,2.11,10,10,0,0,1,2.27,7.68,7.78,7.78,0,0,0,5.63,9.47,93,93,0,0,1,29.91,15c1.42,1.06,4.07,3,7.64,1.93s4.67-4.21,5.26-5.88l0-.13C1228.41,205.81,1228.43,192.2,1223.51,179.44Zm-10.89,29.65a105.48,105.48,0,0,0-24.21-11.75,23.29,23.29,0,0,0-5.32-14,24.21,24.21,0,0,0-31.77-4.93c-14.76,9.41-29.76,19-44.26,28.27l-15.29,9.77-4.28,2.73-7.66,4.9c-8.43,5.43-12.22,14.38-10.13,23.93a23.88,23.88,0,0,0,19.39,18.11,24.71,24.71,0,0,0,17.41-3.73q5-3.19,10-6.43c5.23-3.35,10.63-6.82,16-10.14,17.32-10.76,34.46-11,52.43-.87a47.65,47.65,0,0,1,23.66,31.47,45.21,45.21,0,0,1-1.59,27A42.91,42.91,0,0,1,1190,324c-24.82,16-50.07,32-73.8,47a45.9,45.9,0,0,1-25.8,7.11h-.07c-22.11,0-42-15-48.33-36.47a45.15,45.15,0,0,1-.87-22.36c2.62,1.72,5.45,3.43,8.46,5a99.65,99.65,0,0,0,15.61,6.65,23.74,23.74,0,0,0,16.94,22,23.18,23.18,0,0,0,19.92-2.67c22.28-14.17,45.84-29.21,72-46,8-5.16,11.58-13.15,10-22.51s-7.63-15.92-16.94-18.67a23.67,23.67,0,0,0-19.79,2.95c-5.35,3.37-10.76,6.83-16,10.18-3.61,2.31-7.23,4.63-10.86,6.93-9,5.74-18.9,8.09-30.16,7.16a49.64,49.64,0,0,1-33.68-16.63c-9.46-10.43-13.72-22.49-12.65-35.86,1.17-14.58,8-26,20.32-33.88,22.16-14.22,46.14-29.48,73.31-46.67a44.73,44.73,0,0,1,30.11-6.85c21.36,2.63,35.52,13.7,43.29,33.84A42.28,42.28,0,0,1,1212.62,209.09Zm10.89-29.65c-4.72-12.25-11.72-22.05-20.79-29.16s-20.33-11.55-33.37-13.16a57.78,57.78,0,0,0-38.92,8.83c-27.19,17.2-51.2,32.48-73.39,46.71-16,10.28-24.92,25.12-26.44,44.1-1.37,17.2,4,32.66,16.08,45.95a62.69,62.69,0,0,0,42.52,21,60.72,60.72,0,0,0,38.45-9.21c3.64-2.3,7.27-4.63,10.9-7,5.22-3.33,10.6-6.78,15.92-10.13a10.31,10.31,0,0,1,8.83-1.44c4.4,1.31,6.8,3.89,7.53,8.12.69,4-.54,6.7-4,8.91-26.17,16.76-49.71,31.8-72,46a9.78,9.78,0,0,1-8.72,1.19,10.42,10.42,0,0,1-7.51-11.27c.4-4.95-2.08-8.56-6.82-9.9a82.68,82.68,0,0,1-16-6.53,111.62,111.62,0,0,1-13.77-8.82,7.24,7.24,0,0,0-11.77,4.24c-.18.77-.43,1.59-.69,2.46s-.43,1.46-.64,2.2a60.08,60.08,0,0,0,.18,33c8,27.12,33.16,46.07,61.17,46.09h.65a58.88,58.88,0,0,0,32.42-9.19c23.76-15.05,49-31.07,73.89-47.06,20.66-13.28,30.24-37.64,24.39-62.05a61.34,61.34,0,0,0-30.1-40c-10.94-6.21-22.09-9.27-33.12-9.13-11.18.15-22.29,3.61-33,10.27-5.43,3.37-10.88,6.86-16.15,10.24-3.32,2.14-6.64,4.28-10,6.4a11.33,11.33,0,0,1-8.17,1.79,10.49,10.49,0,0,1-8.34-7.71c-.91-4.15.5-7.35,4.29-9.79q3.79-2.45,7.61-4.87l4.3-2.74,15.28-9.77c14.5-9.28,29.5-18.86,44.25-28.26a10.66,10.66,0,0,1,14.17,2.11,10,10,0,0,1,2.27,7.68,7.78,7.78,0,0,0,5.63,9.47,93,93,0,0,1,29.91,15c1.42,1.06,4.07,3,7.64,1.93s4.67-4.21,5.26-5.88l0-.13C1228.41,205.81,1228.43,192.2,1223.51,179.44Zm-10.89,29.65a105.48,105.48,0,0,0-24.21-11.75,23.29,23.29,0,0,0-5.32-14,24.21,24.21,0,0,0-31.77-4.93c-14.76,9.41-29.76,19-44.26,28.27l-15.29,9.77-4.28,2.73-7.66,4.9c-8.43,5.43-12.22,14.38-10.13,23.93a23.88,23.88,0,0,0,19.39,18.11,24.71,24.71,0,0,0,17.41-3.73q5-3.19,10-6.43c5.23-3.35,10.63-6.82,16-10.14,17.32-10.76,34.46-11,52.43-.87a47.65,47.65,0,0,1,23.66,31.47,45.21,45.21,0,0,1-1.59,27A42.91,42.91,0,0,1,1190,324c-24.82,16-50.07,32-73.8,47a45.9,45.9,0,0,1-25.8,7.11h-.07c-22.11,0-42-15-48.33-36.47a45.15,45.15,0,0,1-.87-22.36c2.62,1.72,5.45,3.43,8.46,5a99.65,99.65,0,0,0,15.61,6.65,23.74,23.74,0,0,0,16.94,22,23.18,23.18,0,0,0,19.92-2.67c22.28-14.17,45.84-29.21,72-46,8-5.16,11.58-13.15,10-22.51s-7.63-15.92-16.94-18.67a23.67,23.67,0,0,0-19.79,2.95c-5.35,3.37-10.76,6.83-16,10.18-3.61,2.31-7.23,4.63-10.86,6.93-9,5.74-18.9,8.09-30.16,7.16a49.64,49.64,0,0,1-33.68-16.63c-9.46-10.43-13.72-22.49-12.65-35.86,1.17-14.58,8-26,20.32-33.88,22.16-14.22,46.14-29.48,73.31-46.67a44.73,44.73,0,0,1,30.11-6.85c21.36,2.63,35.52,13.7,43.29,33.84A42.28,42.28,0,0,1,1212.62,209.09Zm10.89-29.65c-4.72-12.25-11.72-22.05-20.79-29.16s-20.33-11.55-33.37-13.16a57.78,57.78,0,0,0-38.92,8.83c-27.19,17.2-51.2,32.48-73.39,46.71-16,10.28-24.92,25.12-26.44,44.1-1.37,17.2,4,32.66,16.08,45.95a62.69,62.69,0,0,0,42.52,21,60.72,60.72,0,0,0,38.45-9.21c3.64-2.3,7.27-4.63,10.9-7,5.22-3.33,10.6-6.78,15.92-10.13a10.31,10.31,0,0,1,8.83-1.44c4.4,1.31,6.8,3.89,7.53,8.12.69,4-.54,6.7-4,8.91-26.17,16.76-49.71,31.8-72,46a9.78,9.78,0,0,1-8.72,1.19,10.42,10.42,0,0,1-7.51-11.27c.4-4.95-2.08-8.56-6.82-9.9a82.68,82.68,0,0,1-16-6.53,111.62,111.62,0,0,1-13.77-8.82,7.24,7.24,0,0,0-11.77,4.24c-.18.77-.43,1.59-.69,2.46s-.43,1.46-.64,2.2a60.08,60.08,0,0,0,.18,33c8,27.12,33.16,46.07,61.17,46.09h.65a58.88,58.88,0,0,0,32.42-9.19c23.76-15.05,49-31.07,73.89-47.06,20.66-13.28,30.24-37.64,24.39-62.05a61.34,61.34,0,0,0-30.1-40c-10.94-6.21-22.09-9.27-33.12-9.13-11.18.15-22.29,3.61-33,10.27-5.43,3.37-10.88,6.86-16.15,10.24-3.32,2.14-6.64,4.28-10,6.4a11.33,11.33,0,0,1-8.17,1.79,10.49,10.49,0,0,1-8.34-7.71c-.91-4.15.5-7.35,4.29-9.79q3.79-2.45,7.61-4.87l4.3-2.74,15.28-9.77c14.5-9.28,29.5-18.86,44.25-28.26a10.66,10.66,0,0,1,14.17,2.11,10,10,0,0,1,2.27,7.68,7.78,7.78,0,0,0,5.63,9.47,93,93,0,0,1,29.91,15c1.42,1.06,4.07,3,7.64,1.93s4.67-4.21,5.26-5.88l0-.13C1228.41,205.81,1228.43,192.2,1223.51,179.44Zm-10.89,29.65a105.48,105.48,0,0,0-24.21-11.75,23.29,23.29,0,0,0-5.32-14,24.21,24.21,0,0,0-31.77-4.93c-14.76,9.41-29.76,19-44.26,28.27l-15.29,9.77-4.28,2.73-7.66,4.9c-8.43,5.43-12.22,14.38-10.13,23.93a23.88,23.88,0,0,0,19.39,18.11,24.71,24.71,0,0,0,17.41-3.73q5-3.19,10-6.43c5.23-3.35,10.63-6.82,16-10.14,17.32-10.76,34.46-11,52.43-.87a47.65,47.65,0,0,1,23.66,31.47,45.21,45.21,0,0,1-1.59,27A42.91,42.91,0,0,1,1190,324c-24.82,16-50.07,32-73.8,47a45.9,45.9,0,0,1-25.8,7.11h-.07c-22.11,0-42-15-48.33-36.47a45.15,45.15,0,0,1-.87-22.36c2.62,1.72,5.45,3.43,8.46,5a99.65,99.65,0,0,0,15.61,6.65,23.74,23.74,0,0,0,16.94,22,23.18,23.18,0,0,0,19.92-2.67c22.28-14.17,45.84-29.21,72-46,8-5.16,11.58-13.15,10-22.51s-7.63-15.92-16.94-18.67a23.67,23.67,0,0,0-19.79,2.95c-5.35,3.37-10.76,6.83-16,10.18-3.61,2.31-7.23,4.63-10.86,6.93-9,5.74-18.9,8.09-30.16,7.16a49.64,49.64,0,0,1-33.68-16.63c-9.46-10.43-13.72-22.49-12.65-35.86,1.17-14.58,8-26,20.32-33.88,22.16-14.22,46.14-29.48,73.31-46.67a44.73,44.73,0,0,1,30.11-6.85c21.36,2.63,35.52,13.7,43.29,33.84A42.28,42.28,0,0,1,1212.62,209.09Zm10.89-29.65c-4.72-12.25-11.72-22.05-20.79-29.16s-20.33-11.55-33.37-13.16a57.78,57.78,0,0,0-38.92,8.83c-27.19,17.2-51.2,32.48-73.39,46.71-16,10.28-24.92,25.12-26.44,44.1-1.37,17.2,4,32.66,16.08,45.95a62.69,62.69,0,0,0,42.52,21,60.72,60.72,0,0,0,38.45-9.21c3.64-2.3,7.27-4.63,10.9-7,5.22-3.33,10.6-6.78,15.92-10.13a10.31,10.31,0,0,1,8.83-1.44c4.4,1.31,6.8,3.89,7.53,8.12.69,4-.54,6.7-4,8.91-26.17,16.76-49.71,31.8-72,46a9.78,9.78,0,0,1-8.72,1.19,10.42,10.42,0,0,1-7.51-11.27c.4-4.95-2.08-8.56-6.82-9.9a82.68,82.68,0,0,1-16-6.53,111.62,111.62,0,0,1-13.77-8.82,7.24,7.24,0,0,0-11.77,4.24c-.18.77-.43,1.59-.69,2.46s-.43,1.46-.64,2.2a60.08,60.08,0,0,0,.18,33c8,27.12,33.16,46.07,61.17,46.09h.65a58.88,58.88,0,0,0,32.42-9.19c23.76-15.05,49-31.07,73.89-47.06,20.66-13.28,30.24-37.64,24.39-62.05a61.34,61.34,0,0,0-30.1-40c-10.94-6.21-22.09-9.27-33.12-9.13-11.18.15-22.29,3.61-33,10.27-5.43,3.37-10.88,6.86-16.15,10.24-3.32,2.14-6.64,4.28-10,6.4a11.33,11.33,0,0,1-8.17,1.79,10.49,10.49,0,0,1-8.34-7.71c-.91-4.15.5-7.35,4.29-9.79q3.79-2.45,7.61-4.87l4.3-2.74,15.28-9.77c14.5-9.28,29.5-18.86,44.25-28.26a10.66,10.66,0,0,1,14.17,2.11,10,10,0,0,1,2.27,7.68,7.78,7.78,0,0,0,5.63,9.47,93,93,0,0,1,29.91,15c1.42,1.06,4.07,3,7.64,1.93s4.67-4.21,5.26-5.88l0-.13C1228.41,205.81,1228.43,192.2,1223.51,179.44Zm-10.89,29.65a105.48,105.48,0,0,0-24.21-11.75,23.29,23.29,0,0,0-5.32-14,24.21,24.21,0,0,0-31.77-4.93c-14.76,9.41-29.76,19-44.26,28.27l-15.29,9.77-4.28,2.73-7.66,4.9c-8.43,5.43-12.22,14.38-10.13,23.93a23.88,23.88,0,0,0,19.39,18.11,24.71,24.71,0,0,0,17.41-3.73q5-3.19,10-6.43c5.23-3.35,10.63-6.82,16-10.14,17.32-10.76,34.46-11,52.43-.87a47.65,47.65,0,0,1,23.66,31.47,45.21,45.21,0,0,1-1.59,27A42.91,42.91,0,0,1,1190,324c-24.82,16-50.07,32-73.8,47a45.9,45.9,0,0,1-25.8,7.11h-.07c-22.11,0-42-15-48.33-36.47a45.15,45.15,0,0,1-.87-22.36c2.62,1.72,5.45,3.43,8.46,5a99.65,99.65,0,0,0,15.61,6.65,23.74,23.74,0,0,0,16.94,22,23.18,23.18,0,0,0,19.92-2.67c22.28-14.17,45.84-29.21,72-46,8-5.16,11.58-13.15,10-22.51s-7.63-15.92-16.94-18.67a23.67,23.67,0,0,0-19.79,2.95c-5.35,3.37-10.76,6.83-16,10.18-3.61,2.31-7.23,4.63-10.86,6.93-9,5.74-18.9,8.09-30.16,7.16a49.64,49.64,0,0,1-33.68-16.63c-9.46-10.43-13.72-22.49-12.65-35.86,1.17-14.58,8-26,20.32-33.88,22.16-14.22,46.14-29.48,73.31-46.67a44.73,44.73,0,0,1,30.11-6.85c21.36,2.63,35.52,13.7,43.29,33.84A42.28,42.28,0,0,1,1212.62,209.09Zm10.89-29.65c-4.72-12.25-11.72-22.05-20.79-29.16s-20.33-11.55-33.37-13.16a57.78,57.78,0,0,0-38.92,8.83c-27.19,17.2-51.2,32.48-73.39,46.71-16,10.28-24.92,25.12-26.44,44.1-1.37,17.2,4,32.66,16.08,45.95a62.69,62.69,0,0,0,42.52,21,60.72,60.72,0,0,0,38.45-9.21c3.64-2.3,7.27-4.63,10.9-7,5.22-3.33,10.6-6.78,15.92-10.13a10.31,10.31,0,0,1,8.83-1.44c4.4,1.31,6.8,3.89,7.53,8.12.69,4-.54,6.7-4,8.91-26.17,16.76-49.71,31.8-72,46a9.78,9.78,0,0,1-8.72,1.19,10.42,10.42,0,0,1-7.51-11.27c.4-4.95-2.08-8.56-6.82-9.9a82.68,82.68,0,0,1-16-6.53,111.62,111.62,0,0,1-13.77-8.82,7.24,7.24,0,0,0-11.77,4.24c-.18.77-.43,1.59-.69,2.46s-.43,1.46-.64,2.2a60.08,60.08,0,0,0,.18,33c8,27.12,33.16,46.07,61.17,46.09h.65a58.88,58.88,0,0,0,32.42-9.19c23.76-15.05,49-31.07,73.89-47.06,20.66-13.28,30.24-37.64,24.39-62.05a61.34,61.34,0,0,0-30.1-40c-10.94-6.21-22.09-9.27-33.12-9.13-11.18.15-22.29,3.61-33,10.27-5.43,3.37-10.88,6.86-16.15,10.24-3.32,2.14-6.64,4.28-10,6.4a11.33,11.33,0,0,1-8.17,1.79,10.49,10.49,0,0,1-8.34-7.71c-.91-4.15.5-7.35,4.29-9.79q3.79-2.45,7.61-4.87l4.3-2.74,15.28-9.77c14.5-9.28,29.5-18.86,44.25-28.26a10.66,10.66,0,0,1,14.17,2.11,10,10,0,0,1,2.27,7.68,7.78,7.78,0,0,0,5.63,9.47,93,93,0,0,1,29.91,15c1.42,1.06,4.07,3,7.64,1.93s4.67-4.21,5.26-5.88l0-.13C1228.41,205.81,1228.43,192.2,1223.51,179.44Zm-10.89,29.65a105.48,105.48,0,0,0-24.21-11.75,23.29,23.29,0,0,0-5.32-14,24.21,24.21,0,0,0-31.77-4.93c-14.76,9.41-29.76,19-44.26,28.27l-15.29,9.77-4.28,2.73-7.66,4.9c-8.43,5.43-12.22,14.38-10.13,23.93a23.88,23.88,0,0,0,19.39,18.11,24.71,24.71,0,0,0,17.41-3.73q5-3.19,10-6.43c5.23-3.35,10.63-6.82,16-10.14,17.32-10.76,34.46-11,52.43-.87a47.65,47.65,0,0,1,23.66,31.47,45.21,45.21,0,0,1-1.59,27A42.91,42.91,0,0,1,1190,324c-24.82,16-50.07,32-73.8,47a45.9,45.9,0,0,1-25.8,7.11h-.07c-22.11,0-42-15-48.33-36.47a45.15,45.15,0,0,1-.87-22.36c2.62,1.72,5.45,3.43,8.46,5a99.65,99.65,0,0,0,15.61,6.65,23.74,23.74,0,0,0,16.94,22,23.18,23.18,0,0,0,19.92-2.67c22.28-14.17,45.84-29.21,72-46,8-5.16,11.58-13.15,10-22.51s-7.63-15.92-16.94-18.67a23.67,23.67,0,0,0-19.79,2.95c-5.35,3.37-10.76,6.83-16,10.18-3.61,2.31-7.23,4.63-10.86,6.93-9,5.74-18.9,8.09-30.16,7.16a49.64,49.64,0,0,1-33.68-16.63c-9.46-10.43-13.72-22.49-12.65-35.86,1.17-14.58,8-26,20.32-33.88,22.16-14.22,46.14-29.48,73.31-46.67a44.73,44.73,0,0,1,30.11-6.85c21.36,2.63,35.52,13.7,43.29,33.84A42.28,42.28,0,0,1,1212.62,209.09Zm10.89-29.65c-4.72-12.25-11.72-22.05-20.79-29.16s-20.33-11.55-33.37-13.16a57.78,57.78,0,0,0-38.92,8.83c-27.19,17.2-51.2,32.48-73.39,46.71-16,10.28-24.92,25.12-26.44,44.1-1.37,17.2,4,32.66,16.08,45.95a62.69,62.69,0,0,0,42.52,21,60.72,60.72,0,0,0,38.45-9.21c3.64-2.3,7.27-4.63,10.9-7,5.22-3.33,10.6-6.78,15.92-10.13a10.31,10.31,0,0,1,8.83-1.44c4.4,1.31,6.8,3.89,7.53,8.12.69,4-.54,6.7-4,8.91-26.17,16.76-49.71,31.8-72,46a9.78,9.78,0,0,1-8.72,1.19,10.42,10.42,0,0,1-7.51-11.27c.4-4.95-2.08-8.56-6.82-9.9a82.68,82.68,0,0,1-16-6.53,111.62,111.62,0,0,1-13.77-8.82,7.24,7.24,0,0,0-11.77,4.24c-.18.77-.43,1.59-.69,2.46s-.43,1.46-.64,2.2a60.08,60.08,0,0,0,.18,33c8,27.12,33.16,46.07,61.17,46.09h.65a58.88,58.88,0,0,0,32.42-9.19c23.76-15.05,49-31.07,73.89-47.06,20.66-13.28,30.24-37.64,24.39-62.05a61.34,61.34,0,0,0-30.1-40c-10.94-6.21-22.09-9.27-33.12-9.13-11.18.15-22.29,3.61-33,10.27-5.43,3.37-10.88,6.86-16.15,10.24-3.32,2.14-6.64,4.28-10,6.4a11.33,11.33,0,0,1-8.17,1.79,10.49,10.49,0,0,1-8.34-7.71c-.91-4.15.5-7.35,4.29-9.79q3.79-2.45,7.61-4.87l4.3-2.74,15.28-9.77c14.5-9.28,29.5-18.86,44.25-28.26a10.66,10.66,0,0,1,14.17,2.11,10,10,0,0,1,2.27,7.68,7.78,7.78,0,0,0,5.63,9.47,93,93,0,0,1,29.91,15c1.42,1.06,4.07,3,7.64,1.93s4.67-4.21,5.26-5.88l0-.13C1228.41,205.81,1228.43,192.2,1223.51,179.44Zm-10.89,29.65a105.48,105.48,0,0,0-24.21-11.75,23.29,23.29,0,0,0-5.32-14,24.21,24.21,0,0,0-31.77-4.93c-14.76,9.41-29.76,19-44.26,28.27l-15.29,9.77-4.28,2.73-7.66,4.9c-8.43,5.43-12.22,14.38-10.13,23.93a23.88,23.88,0,0,0,19.39,18.11,24.71,24.71,0,0,0,17.41-3.73q5-3.19,10-6.43c5.23-3.35,10.63-6.82,16-10.14,17.32-10.76,34.46-11,52.43-.87a47.65,47.65,0,0,1,23.66,31.47,45.21,45.21,0,0,1-1.59,27A42.91,42.91,0,0,1,1190,324c-24.82,16-50.07,32-73.8,47a45.9,45.9,0,0,1-25.8,7.11h-.07c-22.11,0-42-15-48.33-36.47a45.15,45.15,0,0,1-.87-22.36c2.62,1.72,5.45,3.43,8.46,5a99.65,99.65,0,0,0,15.61,6.65,23.74,23.74,0,0,0,16.94,22,23.18,23.18,0,0,0,19.92-2.67c22.28-14.17,45.84-29.21,72-46,8-5.16,11.58-13.15,10-22.51s-7.63-15.92-16.94-18.67a23.67,23.67,0,0,0-19.79,2.95c-5.35,3.37-10.76,6.83-16,10.18-3.61,2.31-7.23,4.63-10.86,6.93-9,5.74-18.9,8.09-30.16,7.16a49.64,49.64,0,0,1-33.68-16.63c-9.46-10.43-13.72-22.49-12.65-35.86,1.17-14.58,8-26,20.32-33.88,22.16-14.22,46.14-29.48,73.31-46.67a44.73,44.73,0,0,1,30.11-6.85c21.36,2.63,35.52,13.7,43.29,33.84A42.28,42.28,0,0,1,1212.62,209.09Zm10.89-29.65c-4.72-12.25-11.72-22.05-20.79-29.16s-20.33-11.55-33.37-13.16a57.78,57.78,0,0,0-38.92,8.83c-27.19,17.2-51.2,32.48-73.39,46.71-16,10.28-24.92,25.12-26.44,44.1-1.37,17.2,4,32.66,16.08,45.95a62.69,62.69,0,0,0,42.52,21,60.72,60.72,0,0,0,38.45-9.21c3.64-2.3,7.27-4.63,10.9-7,5.22-3.33,10.6-6.78,15.92-10.13a10.31,10.31,0,0,1,8.83-1.44c4.4,1.31,6.8,3.89,7.53,8.12.69,4-.54,6.7-4,8.91-26.17,16.76-49.71,31.8-72,46a9.78,9.78,0,0,1-8.72,1.19,10.42,10.42,0,0,1-7.51-11.27c.4-4.95-2.08-8.56-6.82-9.9a82.68,82.68,0,0,1-16-6.53,111.62,111.62,0,0,1-13.77-8.82,7.24,7.24,0,0,0-11.77,4.24c-.18.77-.43,1.59-.69,2.46s-.43,1.46-.64,2.2a60.08,60.08,0,0,0,.18,33c8,27.12,33.16,46.07,61.17,46.09h.65a58.88,58.88,0,0,0,32.42-9.19c23.76-15.05,49-31.07,73.89-47.06,20.66-13.28,30.24-37.64,24.39-62.05a61.34,61.34,0,0,0-30.1-40c-10.94-6.21-22.09-9.27-33.12-9.13-11.18.15-22.29,3.61-33,10.27-5.43,3.37-10.88,6.86-16.15,10.24-3.32,2.14-6.64,4.28-10,6.4a11.33,11.33,0,0,1-8.17,1.79,10.49,10.49,0,0,1-8.34-7.71c-.91-4.15.5-7.35,4.29-9.79q3.79-2.45,7.61-4.87l4.3-2.74,15.28-9.77c14.5-9.28,29.5-18.86,44.25-28.26a10.66,10.66,0,0,1,14.17,2.11,10,10,0,0,1,2.27,7.68,7.78,7.78,0,0,0,5.63,9.47,93,93,0,0,1,29.91,15c1.42,1.06,4.07,3,7.64,1.93s4.67-4.21,5.26-5.88l0-.13C1228.41,205.81,1228.43,192.2,1223.51,179.44Zm-10.89,29.65a105.48,105.48,0,0,0-24.21-11.75,23.29,23.29,0,0,0-5.32-14,24.21,24.21,0,0,0-31.77-4.93c-14.76,9.41-29.76,19-44.26,28.27l-15.29,9.77-4.28,2.73-7.66,4.9c-8.43,5.43-12.22,14.38-10.13,23.93a23.88,23.88,0,0,0,19.39,18.11,24.71,24.71,0,0,0,17.41-3.73q5-3.19,10-6.43c5.23-3.35,10.63-6.82,16-10.14,17.32-10.76,34.46-11,52.43-.87a47.65,47.65,0,0,1,23.66,31.47,45.21,45.21,0,0,1-1.59,27A42.91,42.91,0,0,1,1190,324c-24.82,16-50.07,32-73.8,47a45.9,45.9,0,0,1-25.8,7.11h-.07c-22.11,0-42-15-48.33-36.47a45.15,45.15,0,0,1-.87-22.36c2.62,1.72,5.45,3.43,8.46,5a99.65,99.65,0,0,0,15.61,6.65,23.74,23.74,0,0,0,16.94,22,23.18,23.18,0,0,0,19.92-2.67c22.28-14.17,45.84-29.21,72-46,8-5.16,11.58-13.15,10-22.51s-7.63-15.92-16.94-18.67a23.67,23.67,0,0,0-19.79,2.95c-5.35,3.37-10.76,6.83-16,10.18-3.61,2.31-7.23,4.63-10.86,6.93-9,5.74-18.9,8.09-30.16,7.16a49.64,49.64,0,0,1-33.68-16.63c-9.46-10.43-13.72-22.49-12.65-35.86,1.17-14.58,8-26,20.32-33.88,22.16-14.22,46.14-29.48,73.31-46.67a44.73,44.73,0,0,1,30.11-6.85c21.36,2.63,35.52,13.7,43.29,33.84A42.28,42.28,0,0,1,1212.62,209.09Zm10.89-29.65c-4.72-12.25-11.72-22.05-20.79-29.16s-20.33-11.55-33.37-13.16a57.78,57.78,0,0,0-38.92,8.83c-27.19,17.2-51.2,32.48-73.39,46.71-16,10.28-24.92,25.12-26.44,44.1-1.37,17.2,4,32.66,16.08,45.95a62.69,62.69,0,0,0,42.52,21,60.72,60.72,0,0,0,38.45-9.21c3.64-2.3,7.27-4.63,10.9-7,5.22-3.33,10.6-6.78,15.92-10.13a10.31,10.31,0,0,1,8.83-1.44c4.4,1.31,6.8,3.89,7.53,8.12.69,4-.54,6.7-4,8.91-26.17,16.76-49.71,31.8-72,46a9.78,9.78,0,0,1-8.72,1.19,10.42,10.42,0,0,1-7.51-11.27c.4-4.95-2.08-8.56-6.82-9.9a82.68,82.68,0,0,1-16-6.53,111.62,111.62,0,0,1-13.77-8.82,7.24,7.24,0,0,0-11.77,4.24c-.18.77-.43,1.59-.69,2.46s-.43,1.46-.64,2.2a60.08,60.08,0,0,0,.18,33c8,27.12,33.16,46.07,61.17,46.09h.65a58.88,58.88,0,0,0,32.42-9.19c23.76-15.05,49-31.07,73.89-47.06,20.66-13.28,30.24-37.64,24.39-62.05a61.34,61.34,0,0,0-30.1-40c-10.94-6.21-22.09-9.27-33.12-9.13-11.18.15-22.29,3.61-33,10.27-5.43,3.37-10.88,6.86-16.15,10.24-3.32,2.14-6.64,4.28-10,6.4a11.33,11.33,0,0,1-8.17,1.79,10.49,10.49,0,0,1-8.34-7.71c-.91-4.15.5-7.35,4.29-9.79q3.79-2.45,7.61-4.87l4.3-2.74,15.28-9.77c14.5-9.28,29.5-18.86,44.25-28.26a10.66,10.66,0,0,1,14.17,2.11,10,10,0,0,1,2.27,7.68,7.78,7.78,0,0,0,5.63,9.47,93,93,0,0,1,29.91,15c1.42,1.06,4.07,3,7.64,1.93s4.67-4.21,5.26-5.88l0-.13C1228.41,205.81,1228.43,192.2,1223.51,179.44Zm-10.89,29.65a105.48,105.48,0,0,0-24.21-11.75,23.29,23.29,0,0,0-5.32-14,24.21,24.21,0,0,0-31.77-4.93c-14.76,9.41-29.76,19-44.26,28.27l-15.29,9.77-4.28,2.73-7.66,4.9c-8.43,5.43-12.22,14.38-10.13,23.93a23.88,23.88,0,0,0,19.39,18.11,24.71,24.71,0,0,0,17.41-3.73q5-3.19,10-6.43c5.23-3.35,10.63-6.82,16-10.14,17.32-10.76,34.46-11,52.43-.87a47.65,47.65,0,0,1,23.66,31.47,45.21,45.21,0,0,1-1.59,27A42.91,42.91,0,0,1,1190,324c-24.82,16-50.07,32-73.8,47a45.9,45.9,0,0,1-25.8,7.11h-.07c-22.11,0-42-15-48.33-36.47a45.15,45.15,0,0,1-.87-22.36c2.62,1.72,5.45,3.43,8.46,5a99.65,99.65,0,0,0,15.61,6.65,23.74,23.74,0,0,0,16.94,22,23.18,23.18,0,0,0,19.92-2.67c22.28-14.17,45.84-29.21,72-46,8-5.16,11.58-13.15,10-22.51s-7.63-15.92-16.94-18.67a23.67,23.67,0,0,0-19.79,2.95c-5.35,3.37-10.76,6.83-16,10.18-3.61,2.31-7.23,4.63-10.86,6.93-9,5.74-18.9,8.09-30.16,7.16a49.64,49.64,0,0,1-33.68-16.63c-9.46-10.43-13.72-22.49-12.65-35.86,1.17-14.58,8-26,20.32-33.88,22.16-14.22,46.14-29.48,73.31-46.67a44.73,44.73,0,0,1,30.11-6.85c21.36,2.63,35.52,13.7,43.29,33.84A42.28,42.28,0,0,1,1212.62,209.09Zm10.89-29.65c-4.72-12.25-11.72-22.05-20.79-29.16s-20.33-11.55-33.37-13.16a57.78,57.78,0,0,0-38.92,8.83c-27.19,17.2-51.2,32.48-73.39,46.71-16,10.28-24.92,25.12-26.44,44.1-1.37,17.2,4,32.66,16.08,45.95a62.69,62.69,0,0,0,42.52,21,60.72,60.72,0,0,0,38.45-9.21c3.64-2.3,7.27-4.63,10.9-7,5.22-3.33,10.6-6.78,15.92-10.13a10.31,10.31,0,0,1,8.83-1.44c4.4,1.31,6.8,3.89,7.53,8.12.69,4-.54,6.7-4,8.91-26.17,16.76-49.71,31.8-72,46a9.78,9.78,0,0,1-8.72,1.19,10.42,10.42,0,0,1-7.51-11.27c.4-4.95-2.08-8.56-6.82-9.9a82.68,82.68,0,0,1-16-6.53,111.62,111.62,0,0,1-13.77-8.82,7.24,7.24,0,0,0-11.77,4.24c-.18.77-.43,1.59-.69,2.46s-.43,1.46-.64,2.2a60.08,60.08,0,0,0,.18,33c8,27.12,33.16,46.07,61.17,46.09h.65a58.88,58.88,0,0,0,32.42-9.19c23.76-15.05,49-31.07,73.89-47.06,20.66-13.28,30.24-37.64,24.39-62.05a61.34,61.34,0,0,0-30.1-40c-10.94-6.21-22.09-9.27-33.12-9.13-11.18.15-22.29,3.61-33,10.27-5.43,3.37-10.88,6.86-16.15,10.24-3.32,2.14-6.64,4.28-10,6.4a11.33,11.33,0,0,1-8.17,1.79,10.49,10.49,0,0,1-8.34-7.71c-.91-4.15.5-7.35,4.29-9.79q3.79-2.45,7.61-4.87l4.3-2.74,15.28-9.77c14.5-9.28,29.5-18.86,44.25-28.26a10.66,10.66,0,0,1,14.17,2.11,10,10,0,0,1,2.27,7.68,7.78,7.78,0,0,0,5.63,9.47,93,93,0,0,1,29.91,15c1.42,1.06,4.07,3,7.64,1.93s4.67-4.21,5.26-5.88l0-.13C1228.41,205.81,1228.43,192.2,1223.51,179.44Zm-10.89,29.65a105.48,105.48,0,0,0-24.21-11.75,23.29,23.29,0,0,0-5.32-14,24.21,24.21,0,0,0-31.77-4.93c-14.76,9.41-29.76,19-44.26,28.27l-15.29,9.77-4.28,2.73-7.66,4.9c-8.43,5.43-12.22,14.38-10.13,23.93a23.88,23.88,0,0,0,19.39,18.11,24.71,24.71,0,0,0,17.41-3.73q5-3.19,10-6.43c5.23-3.35,10.63-6.82,16-10.14,17.32-10.76,34.46-11,52.43-.87a47.65,47.65,0,0,1,23.66,31.47,45.21,45.21,0,0,1-1.59,27A42.91,42.91,0,0,1,1190,324c-24.82,16-50.07,32-73.8,47a45.9,45.9,0,0,1-25.8,7.11h-.07c-22.11,0-42-15-48.33-36.47a45.15,45.15,0,0,1-.87-22.36c2.62,1.72,5.45,3.43,8.46,5a99.65,99.65,0,0,0,15.61,6.65,23.74,23.74,0,0,0,16.94,22,23.18,23.18,0,0,0,19.92-2.67c22.28-14.17,45.84-29.21,72-46,8-5.16,11.58-13.15,10-22.51s-7.63-15.92-16.94-18.67a23.67,23.67,0,0,0-19.79,2.95c-5.35,3.37-10.76,6.83-16,10.18-3.61,2.31-7.23,4.63-10.86,6.93-9,5.74-18.9,8.09-30.16,7.16a49.64,49.64,0,0,1-33.68-16.63c-9.46-10.43-13.72-22.49-12.65-35.86,1.17-14.58,8-26,20.32-33.88,22.16-14.22,46.14-29.48,73.31-46.67a44.73,44.73,0,0,1,30.11-6.85c21.36,2.63,35.52,13.7,43.29,33.84A42.28,42.28,0,0,1,1212.62,209.09Zm10.89-29.65c-4.72-12.25-11.72-22.05-20.79-29.16s-20.33-11.55-33.37-13.16a57.78,57.78,0,0,0-38.92,8.83c-27.19,17.2-51.2,32.48-73.39,46.71-16,10.28-24.92,25.12-26.44,44.1-1.37,17.2,4,32.66,16.08,45.95a62.69,62.69,0,0,0,42.52,21,60.72,60.72,0,0,0,38.45-9.21c3.64-2.3,7.27-4.63,10.9-7,5.22-3.33,10.6-6.78,15.92-10.13a10.31,10.31,0,0,1,8.83-1.44c4.4,1.31,6.8,3.89,7.53,8.12.69,4-.54,6.7-4,8.91-26.17,16.76-49.71,31.8-72,46a9.78,9.78,0,0,1-8.72,1.19,10.42,10.42,0,0,1-7.51-11.27c.4-4.95-2.08-8.56-6.82-9.9a82.68,82.68,0,0,1-16-6.53,111.62,111.62,0,0,1-13.77-8.82,7.24,7.24,0,0,0-11.77,4.24c-.18.77-.43,1.59-.69,2.46s-.43,1.46-.64,2.2a60.08,60.08,0,0,0,.18,33c8,27.12,33.16,46.07,61.17,46.09h.65a58.88,58.88,0,0,0,32.42-9.19c23.76-15.05,49-31.07,73.89-47.06,20.66-13.28,30.24-37.64,24.39-62.05a61.34,61.34,0,0,0-30.1-40c-10.94-6.21-22.09-9.27-33.12-9.13-11.18.15-22.29,3.61-33,10.27-5.43,3.37-10.88,6.86-16.15,10.24-3.32,2.14-6.64,4.28-10,6.4a11.33,11.33,0,0,1-8.17,1.79,10.49,10.49,0,0,1-8.34-7.71c-.91-4.15.5-7.35,4.29-9.79q3.79-2.45,7.61-4.87l4.3-2.74,15.28-9.77c14.5-9.28,29.5-18.86,44.25-28.26a10.66,10.66,0,0,1,14.17,2.11,10,10,0,0,1,2.27,7.68,7.78,7.78,0,0,0,5.63,9.47,93,93,0,0,1,29.91,15c1.42,1.06,4.07,3,7.64,1.93s4.67-4.21,5.26-5.88l0-.13C1228.41,205.81,1228.43,192.2,1223.51,179.44Zm-10.89,29.65a105.48,105.48,0,0,0-24.21-11.75,23.29,23.29,0,0,0-5.32-14,24.21,24.21,0,0,0-31.77-4.93c-14.76,9.41-29.76,19-44.26,28.27l-15.29,9.77-4.28,2.73-7.66,4.9c-8.43,5.43-12.22,14.38-10.13,23.93a23.88,23.88,0,0,0,19.39,18.11,24.71,24.71,0,0,0,17.41-3.73q5-3.19,10-6.43c5.23-3.35,10.63-6.82,16-10.14,17.32-10.76,34.46-11,52.43-.87a47.65,47.65,0,0,1,23.66,31.47,45.21,45.21,0,0,1-1.59,27A42.91,42.91,0,0,1,1190,324c-24.82,16-50.07,32-73.8,47a45.9,45.9,0,0,1-25.8,7.11h-.07c-22.11,0-42-15-48.33-36.47a45.15,45.15,0,0,1-.87-22.36c2.62,1.72,5.45,3.43,8.46,5a99.65,99.65,0,0,0,15.61,6.65,23.74,23.74,0,0,0,16.94,22,23.18,23.18,0,0,0,19.92-2.67c22.28-14.17,45.84-29.21,72-46,8-5.16,11.58-13.15,10-22.51s-7.63-15.92-16.94-18.67a23.67,23.67,0,0,0-19.79,2.95c-5.35,3.37-10.76,6.83-16,10.18-3.61,2.31-7.23,4.63-10.86,6.93-9,5.74-18.9,8.09-30.16,7.16a49.64,49.64,0,0,1-33.68-16.63c-9.46-10.43-13.72-22.49-12.65-35.86,1.17-14.58,8-26,20.32-33.88,22.16-14.22,46.14-29.48,73.31-46.67a44.73,44.73,0,0,1,30.11-6.85c21.36,2.63,35.52,13.7,43.29,33.84A42.28,42.28,0,0,1,1212.62,209.09Z"
			/>
			<path
				id="outter"
				class="logo"
				d="M1263.09,198.13c0-2-.06-4.71-.13-8,0-.35-.07-.68-.11-1-.22-1.73-.48-3.46-.79-5.16a93.53,93.53,0,0,0-16.25-38.44c-15.13-21-34.76-34.71-58.51-40.83-2.27-.58-4.59-1.1-6.93-1.55l-.8-.14-1.53-.27-1.41-.22c-3-.46-6.28-.81-9.75-1q-3.45-.21-7.19-.17c-1.62,0-3.21.07-4.75.17a105.39,105.39,0,0,0-19.23,2.88l-.18,0-1,.26a94.09,94.09,0,0,0-25.62,11.41l-7.48,4.77c-21.34,13.61-43.41,27.68-65,41.67-26.69,17.27-40.89,42.34-42.2,74.51a89.76,89.76,0,0,0,9.07,43.15c-8.6,14.19-12.9,30.27-12.79,47.85A92,92,0,0,0,1006,379.63c19.72,29.52,47.68,45.44,83.1,47.33,1.78.09,3.55.14,5.31.14a92.31,92.31,0,0,0,50-14.58c27.81-17.56,51-32.3,72.9-46.39,26-16.7,40.2-40.93,42.26-72a89.62,89.62,0,0,0-9-45.74,88,88,0,0,0,11.37-30.33q.63-3.5,1-7.1c.09-1.74.2-4.34.21-7.53C1263.14,202.68,1263.14,201.68,1263.09,198.13Zm-13.17.81v2.57c0,1.48,0,3-.09,4.59,0,.62-.06,1.22-.1,1.81a75.09,75.09,0,0,1-11.66,35.1,9.08,9.08,0,0,0-.44,9.56,76.46,76.46,0,0,1,8.49,40.66c-.88,13.3-4.34,25.21-10.29,35.38s-14.67,19.06-25.83,26.24c-21.9,14.07-45,28.79-72.81,46.33a79.31,79.31,0,0,1-47.4,12.39c-15.51-.83-29.48-4.73-41.52-11.58s-22.52-16.89-31.15-29.81A78.91,78.91,0,0,1,1003.9,328c-.1-16.15,3.88-30.18,12.16-42.89a8.2,8.2,0,0,0,.32-8.67,77,77,0,0,1-8.77-38.81c.56-13.77,3.85-26.1,9.78-36.62s14.82-19.75,26.31-27.18c21.58-14,43.63-28,65-41.62l7.47-4.77a81.58,81.58,0,0,1,38.9-12.62h0c.45,0,1.06-.11,1.78-.15,2.34-.17,4.22-.15,5.22-.13,1.35,0,2.92.1,4.67.29a93.57,93.57,0,0,1,37.89,11c11.56,6.39,21.75,15.65,30.29,27.52a79.75,79.75,0,0,1,9.65,17.7,82.68,82.68,0,0,1,5,19.75c.07.53.13,1.36.19,2.18s.11,1.61.14,2.14l0,.74a.41.41,0,0,1,0,.11C1249.93,197,1249.93,198,1249.92,198.94Z"
			/>
		</g>
		<g id="react">
			<path
				id="logo"
				class="logo"
				d="M1126.39,231.77a32.45,32.45,0,1,0,32.44,32.45A32.45,32.45,0,0,0,1126.39,231.77Zm0,0a32.45,32.45,0,1,0,32.44,32.45A32.45,32.45,0,0,0,1126.39,231.77Zm0,0a32.45,32.45,0,1,0,32.44,32.45A32.45,32.45,0,0,0,1126.39,231.77Zm0,0a32.45,32.45,0,1,0,32.44,32.45A32.45,32.45,0,0,0,1126.39,231.77Zm0,0a32.45,32.45,0,1,0,32.44,32.45A32.45,32.45,0,0,0,1126.39,231.77Zm0,0a32.45,32.45,0,1,0,32.44,32.45A32.45,32.45,0,0,0,1126.39,231.77Zm0,0a32.45,32.45,0,1,0,32.44,32.45A32.45,32.45,0,0,0,1126.39,231.77Zm0,0a32.45,32.45,0,1,0,32.44,32.45A32.45,32.45,0,0,0,1126.39,231.77Zm0,0a32.45,32.45,0,1,0,32.44,32.45A32.45,32.45,0,0,0,1126.39,231.77Zm0,0a32.45,32.45,0,1,0,32.44,32.45A32.45,32.45,0,0,0,1126.39,231.77Zm134.43-19a114.48,114.48,0,0,0-15.51-6.44A117.32,117.32,0,0,0,1233,203a120.84,120.84,0,0,0,4.79-24.71c1-11.85,5.08-58.11-19.46-72.29-23.68-13.69-60,10.61-69.53,17a115,115,0,0,0-22.08,19.11,120.94,120.94,0,0,0-18.86-16.68c-9.68-6.91-47.48-33.89-72.15-19.94-23.82,13.45-21.33,57.07-20.67,68.53a115.89,115.89,0,0,0,5.44,29,120.75,120.75,0,0,0-23.8,8.2c-10.78,5-52.87,24.66-52.88,53,0,27.36,39.19,46.65,49.48,51.72a114.78,114.78,0,0,0,27.59,9.57,121.36,121.36,0,0,0-5,24.67c-1.15,11.84-5.61,58.06,18.8,72.46,23.57,13.9,60.1-10.07,69.69-16.36a116.25,116.25,0,0,0,22.4-19.22,121.24,121.24,0,0,0,19,16.51c9.74,6.82,47.78,33.46,72.33,19.29,23.7-13.67,20.81-57.27,20-68.71a114.86,114.86,0,0,0-5.51-28.68,121.55,121.55,0,0,0,23.88-8c10.82-4.93,53.09-24.18,53.35-52.52C1310.09,237.59,1271.07,217.94,1260.82,212.78Zm-100.94-77.42c15.35-10.71,23.64-13.9,29-15.56,14.3-4.41,19.75-1.65,21.17-.84,2.19,1.24,5.12,3.62,8.39,11.09,2.54,5.8,6.07,16.43,4.66,37.3a157.53,157.53,0,0,1-5.4,31.52c-8-1.71-16.62-3.27-25.7-4.58-8.17-1.19-16-2.06-23.44-2.7-4.43-6.51-9.5-13.4-15.26-20.48-5.43-6.66-10.8-12.67-16-18.06A271.05,271.05,0,0,1,1159.88,135.36ZM1051.75,283.64c3,6.07,6.41,12.41,10.22,19s7.54,12.48,11.27,18q-8.76-1.11-18.09-2.69c-5.17-.87-10.17-1.82-15-2.82v0q2.3-7,5-14.43C1047.28,294.76,1049.51,289.08,1051.75,283.64Zm-11.62-69.55v0c4.84-1,9.84-1.94,15-2.82,6.22-1.06,12.25-1.94,18.09-2.68-3.73,5.57-7.51,11.58-11.27,18.05s-7.2,12.89-10.22,18.95c-2.24-5.44-4.47-11.12-6.63-17Q1042.42,221.14,1040.13,214.09Zm19.93,50.13c4.59-9.46,9.79-19.27,15.77-29.59,2.92-5,5.87-9.91,8.8-14.57s5.86-9.13,8.76-13.39c10.49-.76,21.74-1.2,33.67-1.19,11.68,0,22.71.48,33,1.24,5.9,8.7,11.92,18.21,17.85,28.56,5.81,10.1,15,28.52,15.19,28.83-4.59,9.45-9.83,19.42-15.81,29.74-5.86,10.11-11.77,19.43-17.57,28v.05c-10.49.75-21.73,1.2-33.66,1.18-11.68,0-22.51-.47-32.81-1.22-5.89-8.71-11.8-18.08-17.75-28.41C1069.67,283.29,1064.56,273.51,1060.06,264.22Zm132.12,37.59c3.81-6.54,7.2-12.89,10.22-18.95q3.38,8.16,6.64,17.05c1.79,4.91,3.45,9.73,5,14.42v0q-7.26,1.5-15,2.82c-6.22,1.06-12.26,1.94-18.1,2.68C1184.64,314.3,1188.42,308.28,1192.18,301.81Zm16.37-73.29c-2.16,5.92-4.39,11.6-6.64,17-3-6.06-6.41-12.41-10.21-18.95s-7.55-12.48-11.28-18.05c5.84.74,11.88,1.62,18.1,2.68,5.16.88,10.17,1.83,15,2.82l0,0Q1211.24,221.13,1208.55,228.52Zm-81.74-64.28h0q4.94,5.53,10,11.56,6.06,7.27,11.41,14.3c-6.76-.43-14-.69-21.52-.68s-14.58.25-21.27.68q5.35-7,11.41-14.3Q1121.87,169.77,1126.81,164.24Zm-92-34.19c3.28-7.47,6.2-9.85,8.39-11.09,1.43-.81,6.87-3.57,21.17.84,5.41,1.66,13.7,4.85,29,15.56A269.4,269.4,0,0,1,1116,153.05c-5.17,5.39-10.55,11.4-16,18.06-5.77,7.08-10.83,14-15.27,20.48-7.44.64-15.27,1.51-23.44,2.7-9.08,1.31-17.65,2.87-25.69,4.58a156.94,156.94,0,0,1-5.41-31.52C1028.77,146.48,1032.3,135.85,1034.84,130.05Zm-10.45,181.51A267.15,267.15,0,0,1,998,300.5c-16.82-8.2-23.64-13.9-27.73-17.81-10.8-10.35-11-16.45-11-18.09,0-2.52.67-6.23,5.61-12.73,3.83-5,11.4-13.29,30.32-22.21a157.48,157.48,0,0,1,30.17-10.6c2.42,7.85,5.23,16.1,8.49,24.68,2.94,7.7,6,15,9,21.79-3.54,7-7.09,14.81-10.47,23.3C1029.22,296.8,1026.58,304.42,1024.39,311.56Zm69.4,82.83c-15.35,10.71-23.65,13.9-29.06,15.56-14.29,4.41-19.74,1.65-21.16.85-2.2-1.24-5.12-3.63-8.4-11.1-2.53-5.8-6.07-16.43-4.66-37.3a157.48,157.48,0,0,1,5.41-31.51c8,1.7,16.62,3.26,25.7,4.57,8.16,1.19,16,2.06,23.44,2.7,4.43,6.52,9.49,13.4,15.26,20.48,5.42,6.66,10.8,12.67,16,18.06A269,269,0,0,1,1093.79,394.39Zm33.63-29.62h0q-4.94-5.53-10-11.56-6.06-7.27-11.41-14.31c6.69.43,13.79.69,21.27.69s14.76-.25,21.52-.69q-5.35,7-11.41,14.31Q1132.36,359.24,1127.42,364.77ZM1218.77,399c-3.28,7.47-6.2,9.85-8.39,11.09-1.43.8-6.88,3.57-21.17-.84-5.41-1.66-13.71-4.85-29.06-15.57a268.59,268.59,0,0,1-22.5-17.68c5.17-5.4,10.55-11.4,16-18.06,5.77-7.08,10.83-14,15.26-20.48,7.45-.64,15.28-1.52,23.44-2.7,9.08-1.31,17.66-2.87,25.7-4.57a157.25,157.25,0,0,1,5.41,31.51C1224.84,382.58,1221.3,393.21,1218.77,399Zm65.15-116.57c-4.08,3.92-10.91,9.62-27.73,17.82a269.26,269.26,0,0,1-26.4,11.06c-2.2-7.14-4.83-14.76-8-22.74-3.38-8.48-6.94-16.25-10.48-23.29,3.07-6.82,6.11-14.09,9-21.8,3.27-8.57,6.07-16.82,8.5-24.68A157,157,0,0,1,1259,229.42c18.93,8.92,26.5,17.17,30.33,22.21,4.93,6.49,5.59,10.21,5.61,12.73C1295,266,1294.72,272.09,1283.92,282.44Zm-157.53,14.22a32.45,32.45,0,1,0-32.45-32.44A32.44,32.44,0,0,0,1126.39,296.66Zm0-64.89a32.45,32.45,0,1,0,32.44,32.45A32.45,32.45,0,0,0,1126.39,231.77Zm0,0a32.45,32.45,0,1,0,32.44,32.45A32.45,32.45,0,0,0,1126.39,231.77Zm0,0a32.45,32.45,0,1,0,32.44,32.45A32.45,32.45,0,0,0,1126.39,231.77Zm0,0a32.45,32.45,0,1,0,32.44,32.45A32.45,32.45,0,0,0,1126.39,231.77Zm0,0a32.45,32.45,0,1,0,32.44,32.45A32.45,32.45,0,0,0,1126.39,231.77Zm0,0a32.45,32.45,0,1,0,32.44,32.45A32.45,32.45,0,0,0,1126.39,231.77Zm0,0a32.45,32.45,0,1,0,32.44,32.45A32.45,32.45,0,0,0,1126.39,231.77Zm0,0a32.45,32.45,0,1,0,32.44,32.45A32.45,32.45,0,0,0,1126.39,231.77Zm0,0a32.45,32.45,0,1,0,32.44,32.45A32.45,32.45,0,0,0,1126.39,231.77Zm0,0a32.45,32.45,0,1,0,32.44,32.45A32.45,32.45,0,0,0,1126.39,231.77Z"
			/>
		</g>
		<g id="javascript">
			<path
				id="logo-2"
				class="logo"
				d="M962.48,100.2V428H1290.3V100.2Zm181.68,262.93a41,41,0,0,1-3.39,15.23,36.65,36.65,0,0,1-7.89,11.85c-6.12,6.06-12.81,8.14-17.5,9.59a55.78,55.78,0,0,1-19.74,2.26,50.91,50.91,0,0,1-24.83-7.33,46.82,46.82,0,0,1-15.23-15.24,42.07,42.07,0,0,1-2.83-5.64l25.39-15.23a68.55,68.55,0,0,0,6.78,10.15,17.05,17.05,0,0,0,3.95,4,15.83,15.83,0,0,0,8.74,2.54,18.06,18.06,0,0,0,8.18-2,14.19,14.19,0,0,0,4-2.83,14.47,14.47,0,0,0,2.54-3.66,15.05,15.05,0,0,0,1.41-4.8V250.85h30.47Zm124.13-3.95a49.6,49.6,0,0,1-2.26,14.11,35.18,35.18,0,0,1-6.2,12.41,34.35,34.35,0,0,1-9.59,7.9,56.24,56.24,0,0,1-19.75,7.33,68.26,68.26,0,0,1-20.88.57,64.91,64.91,0,0,1-19.18-4.52,58.59,58.59,0,0,1-15.8-9.59,59.79,59.79,0,0,1-5.64-5.64,41.55,41.55,0,0,1-5.08-6.77,36.12,36.12,0,0,1-2.26-4.52l24.83-14.1a44.58,44.58,0,0,0,11.85,13,29.64,29.64,0,0,0,9.59,5.07,28.65,28.65,0,0,0,13.54.57,31.13,31.13,0,0,0,6.77-2.26c2.72-1.26,4.85-2.24,6.77-4.51a12.41,12.41,0,0,0,2.82-5.64,13.35,13.35,0,0,0-.56-6.78,17.49,17.49,0,0,0-2.82-5.64,19.46,19.46,0,0,0-6.21-5.08,53.56,53.56,0,0,0-10.16-4.51c-7.51-2.52-12.87-5.38-19.74-9a70.64,70.64,0,0,1-13-8.46,44.41,44.41,0,0,1-5.64-5.64,35.13,35.13,0,0,1-4-5.65,34,34,0,0,1-3.39-9,50.58,50.58,0,0,1-1.13-10.72c0-1.49-.1-3,0-5.08a37.56,37.56,0,0,1,1.7-10.72,34.91,34.91,0,0,1,5.07-9.59,38.47,38.47,0,0,1,4-4.52,44.24,44.24,0,0,1,9.6-7.33,43.67,43.67,0,0,1,7.89-3.39,45.63,45.63,0,0,1,10.16-2.26,57.32,57.32,0,0,1,9,0,56.43,56.43,0,0,1,10.72,1.13,45.59,45.59,0,0,1,16.36,7.34,44.43,44.43,0,0,1,8.47,7.9,42.58,42.58,0,0,1,5.07,7.9l-23.69,15.23a23.51,23.51,0,0,0-6.21-7.9,22.76,22.76,0,0,0-5.64-3.38,22,22,0,0,0-7.9-1.7,15.6,15.6,0,0,0-5.08.57,13.35,13.35,0,0,0-7.34,5.08,13.62,13.62,0,0,0-2.25,6.77,13.42,13.42,0,0,0,.56,6.2c1.14,3.16,3.33,4.92,5.64,6.77a34.67,34.67,0,0,0,7.9,4.52c2.34,1.07,3.47,1.41,5.65,2.25,5.52,2.15,5.84,2.92,14.1,6.78,6.1,2.84,6.57,2.73,9.59,4.51a59.53,59.53,0,0,1,7.9,5.64c4.4,3.59,7.12,5.81,9.59,9.59a32.71,32.71,0,0,1,4,9A49.79,49.79,0,0,1,1268.29,359.18Z"
			/>
		</g>
	</g>
</svg>
